<svg width="237" height="93" viewBox="0 0 237 93" fill="none" xmlns="http://www.w3.org/2000/svg">
<path d="M23.3382 14.2892V70.8874C23.3382 71.3153 23.1679 71.7256 22.8649 72.0282C22.5619 72.3307 22.1509 72.5007 21.7224 72.5007H14.5794C10.7225 72.5007 7.02366 70.971 4.29645 68.248C1.56925 65.5251 0.0371094 61.832 0.0371094 57.9812V3.8307C0.0371094 3.07529 0.337676 2.35082 0.872668 1.81666C1.40766 1.28251 2.13325 0.982422 2.88984 0.982422H10.0663C13.5877 1.00877 16.9565 2.42096 19.4414 4.91235C21.9263 7.40374 23.3265 10.7732 23.3382 14.2892Z" fill="url(#paint0_linear_1045_39)"/>
<path d="M54.9969 50.7381V64.4343C54.9969 66.5825 54.1422 68.6427 52.6208 70.1617C51.0994 71.6807 49.036 72.5341 46.8844 72.5341H29.7234C29.484 72.5341 29.2544 72.4391 29.0852 72.2701C28.9159 72.1011 28.8208 71.8719 28.8208 71.6329V56.5682C28.8208 54.603 29.6027 52.7182 30.9945 51.3286C32.3863 49.9389 34.274 49.1582 36.2424 49.1582H53.4033C53.8241 49.1582 54.2277 49.3243 54.5262 49.6203C54.8247 49.9163 54.9939 50.3181 54.9969 50.7381Z" fill="url(#paint1_linear_1045_39)"/>
<path d="M83.3459 63.1993H99.2254V72.5452H71.233V22.8674H83.3459V63.1993Z" fill="#122730"/>
<path d="M112.586 70.6315C109.525 69.0187 106.992 66.5628 105.287 63.5554C103.527 60.2494 102.607 56.5627 102.607 52.8187C102.607 49.0747 103.527 45.388 105.287 42.0821C107.028 39.0509 109.604 36.5831 112.709 34.9725C115.965 33.3419 119.558 32.4927 123.201 32.4927C126.844 32.4927 130.436 33.3419 133.692 34.9725C136.779 36.5886 139.336 39.0564 141.058 42.0821C142.839 45.3754 143.772 49.0593 143.772 52.802C143.772 56.5447 142.839 60.2287 141.058 63.522C139.306 66.5516 136.723 69.0182 133.614 70.6315C130.365 72.3079 126.752 73.16 123.095 73.1126C119.439 73.1768 115.826 72.3237 112.586 70.6315ZM128.956 60.084C130.583 58.3929 131.397 55.9563 131.397 52.7965C131.572 50.1531 130.722 47.5436 129.023 45.5089C128.271 44.71 127.363 44.0734 126.355 43.6383C125.347 43.2031 124.26 42.9786 123.162 42.9786C122.063 42.9786 120.977 43.2031 119.969 43.6383C118.961 44.0734 118.053 44.71 117.3 45.5089C115.74 47.1778 114.96 49.6255 114.96 52.8298C114.96 56.0341 115.729 58.3929 117.256 60.1174C117.974 60.9392 118.864 61.5934 119.863 62.0337C120.863 62.474 121.947 62.6896 123.039 62.6653C124.152 62.676 125.254 62.4516 126.274 62.0067C127.294 61.5619 128.208 60.9066 128.956 60.084Z" fill="#122730"/>
<path d="M172.539 34.1937C174.528 35.2155 176.206 36.7526 177.397 38.6441V33.0811H189.51V72.4673C189.562 75.883 188.822 79.2643 187.348 82.3472C185.904 85.2938 183.61 87.7424 180.762 89.3789C177.393 91.2307 173.585 92.1381 169.742 92.0047C163.88 92.0047 159.133 90.625 155.5 87.8658C153.722 86.546 152.246 84.8633 151.17 82.9295C150.094 80.9958 149.443 78.8553 149.26 76.6507H161.239C161.426 77.3947 161.759 78.094 162.221 78.7073C162.682 79.3206 163.261 79.8357 163.925 80.2222C165.519 81.1348 167.337 81.5856 169.173 81.5239C170.257 81.5749 171.34 81.4103 172.36 81.0398C173.379 80.6693 174.315 80.1001 175.113 79.3655C176.598 77.9339 177.341 75.6345 177.341 72.4673V66.9043C176.104 68.7687 174.423 70.2978 172.449 71.3547C170.207 72.5511 167.692 73.149 165.15 73.0904C162.016 73.1242 158.939 72.2509 156.291 70.5759C153.574 68.8204 151.402 66.3428 150.018 63.4218C148.497 60.0578 147.711 56.4093 147.711 52.7186C147.711 49.0279 148.497 45.3794 150.018 42.0153C151.404 39.1194 153.578 36.6712 156.291 34.9503C158.944 33.2905 162.02 32.4291 165.15 32.4692C167.72 32.4107 170.262 33.0041 172.539 34.1937ZM174.879 45.6535C174.084 44.8325 173.131 44.1796 172.078 43.7337C171.026 43.2878 169.893 43.058 168.75 43.058C167.606 43.058 166.474 43.2878 165.421 43.7337C164.368 44.1796 163.416 44.8325 162.621 45.6535C161.749 46.6118 161.077 47.7342 160.644 48.955C160.212 50.1757 160.028 51.4704 160.102 52.7631C159.964 55.3928 160.869 57.971 162.621 59.9394C163.409 60.7717 164.359 61.4347 165.413 61.8878C166.467 62.341 167.602 62.5747 168.75 62.5747C169.897 62.5747 171.032 62.341 172.086 61.8878C173.14 61.4347 174.09 60.7717 174.879 59.9394C176.509 57.9125 177.398 55.3906 177.398 52.7909C177.398 50.1912 176.509 47.6693 174.879 45.6424V45.6535Z" fill="#122730"/>
<path d="M205.846 70.6315C202.785 69.0187 200.252 66.5628 198.547 63.5554C196.795 60.2471 195.879 56.5612 195.879 52.8187C195.879 49.0762 196.795 45.3904 198.547 42.0821C200.274 39.056 202.835 36.5885 205.924 34.9725C209.179 33.3437 212.77 32.4955 216.411 32.4955C220.051 32.4955 223.642 33.3437 226.897 34.9725C229.984 36.5915 232.544 39.0583 234.274 42.0821C236.112 45.3496 237.039 49.0495 236.959 52.7965C237.041 56.5528 236.097 60.2606 234.229 63.522C232.481 66.5512 229.902 69.018 226.796 70.6315C223.543 72.3096 219.927 73.1618 216.266 73.1126C212.64 73.1591 209.06 72.3066 205.846 70.6315ZM222.216 60.084C223.854 58.3929 224.668 55.9563 224.668 52.7965C224.843 50.1531 223.994 47.5436 222.294 45.5089C221.541 44.7097 220.632 44.0729 219.623 43.6376C218.614 43.2023 217.526 42.9778 216.427 42.9778C215.328 42.9778 214.241 43.2023 213.232 43.6376C212.223 44.0729 211.313 44.7097 210.56 45.5089C209 47.1778 208.22 49.6255 208.22 52.8298C208.22 56.0341 208.989 58.3929 210.527 60.1174C211.243 60.939 212.131 61.5931 213.129 62.0334C214.126 62.4737 215.209 62.6895 216.299 62.6653C217.412 62.6775 218.515 62.4537 219.535 62.0087C220.555 61.5638 221.469 60.9077 222.216 60.084Z" fill="#122730"/>
<defs>
<linearGradient id="paint0_linear_1045_39" x1="6.81909" y1="-55.0632" x2="120.904" y2="85.6947" gradientUnits="userSpaceOnUse">
<stop stop-color="#EC1B69"/>
<stop offset="1" stop-color="#F05B57"/>
</linearGradient>
<linearGradient id="paint1_linear_1045_39" x1="-119.836" y1="-33.5481" x2="-47.6563" y2="173.536" gradientUnits="userSpaceOnUse">
<stop stop-color="#EC1B69"/>
<stop offset="1" stop-color="#F05B57"/>
</linearGradient>
</defs>
</svg>
