<svg width="39" height="54" viewBox="0 0 39 54" fill="none" xmlns="http://www.w3.org/2000/svg">
<path d="M26.5 1H16.628L9.5 15H15.5L11.5 23H17.5L13.5 37L29.5 18.9522H23.5L27.5 11H21.5L26.5 1Z" stroke="#283F7E" stroke-width="2" stroke-miterlimit="10" stroke-linecap="round" stroke-linejoin="round"/>
<path d="M2.83063 51.24C2.79062 51.3067 2.80396 51.34 2.87063 51.34H8.17063C8.30396 51.34 8.37063 51.4067 8.37063 51.54V52.8C8.37063 52.9333 8.30396 53 8.17063 53H0.630625C0.497292 53 0.430625 52.9333 0.430625 52.8V51.52C0.430625 51.4267 0.457292 51.3467 0.510625 51.28C2.23063 49.0667 3.57062 47.2867 4.53062 45.94C5.55729 44.5133 6.07063 43.3733 6.07063 42.52C6.07063 41.9067 5.89729 41.42 5.55063 41.06C5.20396 40.6867 4.74396 40.5 4.17063 40.5C3.61063 40.5 3.15729 40.6867 2.81063 41.06C2.47729 41.42 2.31729 41.9 2.33062 42.5V43.2C2.33062 43.3333 2.26396 43.4 2.13063 43.4H0.590625C0.457292 43.4 0.390625 43.3333 0.390625 43.2V42.34C0.417292 41.2867 0.783958 40.44 1.49063 39.8C2.21063 39.16 3.11729 38.84 4.21063 38.84C4.97063 38.84 5.63729 39 6.21063 39.32C6.78396 39.6267 7.22396 40.06 7.53062 40.62C7.85063 41.18 8.01063 41.8133 8.01063 42.52C8.01063 43.7067 7.47729 45.0533 6.41062 46.56C5.79729 47.4267 4.79729 48.74 3.41062 50.5L2.83063 51.24Z" fill="#283F7E"/>
<path d="M12.44 51.24C12.4 51.3067 12.4133 51.34 12.48 51.34H17.78C17.9133 51.34 17.98 51.4067 17.98 51.54V52.8C17.98 52.9333 17.9133 53 17.78 53H10.24C10.1067 53 10.04 52.9333 10.04 52.8V51.52C10.04 51.4267 10.0667 51.3467 10.12 51.28C11.84 49.0667 13.18 47.2867 14.14 45.94C15.1667 44.5133 15.68 43.3733 15.68 42.52C15.68 41.9067 15.5067 41.42 15.16 41.06C14.8133 40.6867 14.3533 40.5 13.78 40.5C13.22 40.5 12.7667 40.6867 12.42 41.06C12.0867 41.42 11.9267 41.9 11.94 42.5V43.2C11.94 43.3333 11.8733 43.4 11.74 43.4H10.2C10.0667 43.4 10 43.3333 10 43.2V42.34C10.0267 41.2867 10.3933 40.44 11.1 39.8C11.82 39.16 12.7267 38.84 13.82 38.84C14.58 38.84 15.2467 39 15.82 39.32C16.3933 39.6267 16.8333 40.06 17.14 40.62C17.46 41.18 17.62 41.8133 17.62 42.52C17.62 43.7067 17.0867 45.0533 16.02 46.56C15.4067 47.4267 14.4067 48.74 13.02 50.5L12.44 51.24Z" fill="#283F7E"/>
<path d="M23.8094 53.2C22.596 53.2 21.6227 52.84 20.8894 52.12C20.1694 51.4 19.8094 50.4333 19.8094 49.22V42.78C19.8094 41.58 20.1694 40.62 20.8894 39.9C21.6227 39.18 22.596 38.82 23.8094 38.82C25.0227 38.82 25.996 39.18 26.7294 39.9C27.4627 40.62 27.8294 41.58 27.8294 42.78V49.22C27.8294 50.4333 27.4627 51.4 26.7294 52.12C25.996 52.84 25.0227 53.2 23.8094 53.2ZM23.8094 51.54C24.436 51.54 24.9427 51.34 25.3294 50.94C25.716 50.5267 25.9094 49.9867 25.9094 49.32V42.7C25.9094 42.0333 25.716 41.5 25.3294 41.1C24.9427 40.6867 24.436 40.48 23.8094 40.48C23.1827 40.48 22.676 40.6867 22.2894 41.1C21.916 41.5 21.7294 42.0333 21.7294 42.7V49.32C21.7294 49.9867 21.916 50.5267 22.2894 50.94C22.676 51.34 23.1827 51.54 23.8094 51.54Z" fill="#283F7E"/>
<path d="M33.3261 53C33.2061 53 33.1328 52.94 33.1061 52.82L29.5261 39.22L29.5061 39.16C29.5061 39.0533 29.5728 39 29.7061 39H31.3461C31.4794 39 31.5528 39.06 31.5661 39.18L34.1661 49.9C34.1794 49.94 34.1928 49.96 34.2061 49.96C34.2194 49.96 34.2328 49.94 34.2461 49.9L36.8461 39.18C36.8728 39.06 36.9461 39 37.0661 39H38.6461C38.7128 39 38.7594 39.02 38.7861 39.06C38.8261 39.1 38.8394 39.1533 38.8261 39.22L35.2061 52.82C35.1794 52.94 35.1061 53 34.9861 53H33.3261Z" fill="#283F7E"/>
</svg>
