<svg width="45" height="54" viewBox="0 0 45 54" fill="none" xmlns="http://www.w3.org/2000/svg">
<path d="M32.0338 17.4617C28.8137 15.1494 25.2304 13.8585 21.5673 13.6912C17.9133 13.8691 14.3403 15.165 11.1299 17.4769M1.07031 8.93208C2.82597 7.42098 4.73863 6.09551 6.77982 4.98134C11.3178 2.50437 16.3648 1.1408 21.516 1C26.6725 1.14267 31.7239 2.51257 36.263 4.99931C38.2898 6.10984 40.1895 7.42922 41.9334 8.93208M37.4507 43.0512H43.4201V47.0306C43.4201 50.3275 40.7476 53 37.4507 53H33.4711C30.1744 53 27.5018 50.3275 27.5018 47.0306V35.0922C27.5018 31.7954 30.1744 29.1228 33.4711 29.1228H37.4507C40.0496 29.1228 42.2608 30.7839 43.0804 33.1024M19.5019 53H3.50194L12.5019 44L16.2473 40C17.0381 38.8662 17.5019 37.4872 17.5019 36C17.5019 32.134 14.3679 29 10.5019 29C9.18228 29 7.9479 29.3652 6.89436 30C5.95379 30.4528 4.2409 32.1887 3.50202 33" stroke="#283F7E" stroke-width="2" stroke-linecap="round" stroke-linejoin="round"/>
</svg>
