<svg width="47" height="54" viewBox="0 0 47 54" fill="none" xmlns="http://www.w3.org/2000/svg">
<path d="M34.0322 17.4617C30.8121 15.1494 27.2288 13.8585 23.5657 13.6912C19.9117 13.8691 16.3387 15.165 13.1283 17.4769M3.06871 8.93208C4.82437 7.42098 6.73703 6.09551 8.77822 4.98134C13.3162 2.50437 18.3632 1.1408 23.5144 1C28.6709 1.14267 33.7223 2.51257 38.2614 4.99931C40.2882 6.10984 42.1879 7.42922 43.9318 8.93208M39.4491 43.0512H45.4185V47.0306C45.4185 50.3275 42.746 53 39.4491 53H35.4695C32.1728 53 29.5002 50.3275 29.5002 47.0306V35.0922C29.5002 31.7954 32.1728 29.1228 35.4695 29.1228H39.4491C42.048 29.1228 44.2592 30.7839 45.0788 33.1024M21.3235 47.0306H2.87209C2.07332 47.0306 1.42578 46.3833 1.42578 45.5842C1.42578 45.2341 1.55291 44.8958 1.78363 44.632L14.9452 29.5902C15.2051 29.2932 15.5806 29.1228 15.9752 29.1228C16.7312 29.1228 17.344 29.7356 17.344 30.4915V53" stroke="#283F7E" stroke-width="2" stroke-linecap="round" stroke-linejoin="round"/>
</svg>
