<svg width="126" height="46" viewBox="0 0 126 46" fill="none" xmlns="http://www.w3.org/2000/svg">
<rect x="0.5" y="0.5" width="125" height="45" rx="7.5" stroke="#BDE8FA"/>
<path d="M26.6888 9.875C26.8503 11.3595 26.2583 12.8495 25.3853 13.919C24.5118 14.987 23.0743 15.8215 21.6688 15.71C21.4798 14.255 22.1863 12.741 22.9978 11.7925C23.9038 10.721 25.4268 9.9265 26.6888 9.875ZM31.2253 18.521C30.9548 18.691 28.5088 20.2295 28.5403 23.33C28.5738 27.0285 31.6388 28.3415 31.8868 28.448C31.8958 28.452 31.9008 28.454 31.9023 28.455C31.9003 28.461 31.8958 28.475 31.8888 28.4965C31.7983 28.7835 31.2893 30.396 30.1648 32.0565C29.1208 33.598 28.0408 35.1335 26.3323 35.1665C25.5128 35.182 24.9653 34.942 24.3958 34.6925C23.7993 34.431 23.1783 34.1595 22.1968 34.1595C21.1683 34.1595 20.5188 34.4395 19.8933 34.709C19.3518 34.9425 18.8283 35.168 18.0918 35.198C16.4453 35.2585 15.1888 33.532 14.1358 31.9945C11.9828 28.848 10.3398 23.1085 12.5488 19.233C13.6453 17.31 15.6043 16.0915 17.7323 16.0585C18.6493 16.042 19.5373 16.3985 20.3148 16.7105C20.9088 16.949 21.4383 17.1615 21.8663 17.1615C22.2513 17.1615 22.7673 16.956 23.3683 16.7165C24.3143 16.3395 25.4713 15.8785 26.6628 16.002C27.4818 16.035 29.7728 16.334 31.2453 18.5085C31.2413 18.511 31.2348 18.5155 31.2248 18.5215L31.2253 18.521Z" fill="#BDE8FA"/>
<path d="M48.1484 10.2246L45.3242 18H44.1699L47.4219 9.46875H48.166L48.1484 10.2246ZM50.5156 18L47.6855 10.2246L47.668 9.46875H48.4121L51.6758 18H50.5156ZM50.3691 14.8418V15.7676H45.5762V14.8418H50.3691ZM54.2891 17.0215L56.0234 11.6602H57.1309L54.8516 18H54.125L54.2891 17.0215ZM52.8418 11.6602L54.6289 17.0508L54.752 18H54.0254L51.7285 11.6602H52.8418ZM61.8184 16.916V13.6523C61.8184 13.4023 61.7676 13.1855 61.666 13.002C61.5684 12.8145 61.4199 12.6699 61.2207 12.5684C61.0215 12.4668 60.7754 12.416 60.4824 12.416C60.209 12.416 59.9688 12.4629 59.7617 12.5566C59.5586 12.6504 59.3984 12.7734 59.2812 12.9258C59.168 13.0781 59.1113 13.2422 59.1113 13.418H58.0273C58.0273 13.1914 58.0859 12.9668 58.2031 12.7441C58.3203 12.5215 58.4883 12.3203 58.707 12.1406C58.9297 11.957 59.1953 11.8125 59.5039 11.707C59.8164 11.5977 60.1641 11.543 60.5469 11.543C61.0078 11.543 61.4141 11.6211 61.7656 11.7773C62.1211 11.9336 62.3984 12.1699 62.5977 12.4863C62.8008 12.7988 62.9023 13.1914 62.9023 13.6641V16.6172C62.9023 16.8281 62.9199 17.0527 62.9551 17.291C62.9941 17.5293 63.0508 17.7344 63.125 17.9062V18H61.9941C61.9395 17.875 61.8965 17.709 61.8652 17.502C61.834 17.291 61.8184 17.0957 61.8184 16.916ZM62.0059 14.1562L62.0176 14.918H60.9219C60.6133 14.918 60.3379 14.9434 60.0957 14.9941C59.8535 15.041 59.6504 15.1133 59.4863 15.2109C59.3223 15.3086 59.1973 15.4316 59.1113 15.5801C59.0254 15.7246 58.9824 15.8945 58.9824 16.0898C58.9824 16.2891 59.0273 16.4707 59.1172 16.6348C59.207 16.7988 59.3418 16.9297 59.5215 17.0273C59.7051 17.1211 59.9297 17.168 60.1953 17.168C60.5273 17.168 60.8203 17.0977 61.0742 16.957C61.3281 16.8164 61.5293 16.6445 61.6777 16.4414C61.8301 16.2383 61.9121 16.041 61.9238 15.8496L62.3867 16.3711C62.3594 16.5352 62.2852 16.7168 62.1641 16.916C62.043 17.1152 61.8809 17.3066 61.6777 17.4902C61.4785 17.6699 61.2402 17.8203 60.9629 17.9414C60.6895 18.0586 60.3809 18.1172 60.0371 18.1172C59.6074 18.1172 59.2305 18.0332 58.9062 17.8652C58.5859 17.6973 58.3359 17.4727 58.1562 17.1914C57.9805 16.9062 57.8926 16.5879 57.8926 16.2363C57.8926 15.8965 57.959 15.5977 58.0918 15.3398C58.2246 15.0781 58.416 14.8613 58.666 14.6895C58.916 14.5137 59.2168 14.3809 59.5684 14.291C59.9199 14.2012 60.3125 14.1562 60.7461 14.1562H62.0059ZM65.7852 11.6602V18H64.6953V11.6602H65.7852ZM64.6133 9.97852C64.6133 9.80273 64.666 9.6543 64.7715 9.5332C64.8809 9.41211 65.041 9.35156 65.252 9.35156C65.459 9.35156 65.6172 9.41211 65.7266 9.5332C65.8398 9.6543 65.8965 9.80273 65.8965 9.97852C65.8965 10.1465 65.8398 10.291 65.7266 10.4121C65.6172 10.5293 65.459 10.5879 65.252 10.5879C65.041 10.5879 64.8809 10.5293 64.7715 10.4121C64.666 10.291 64.6133 10.1465 64.6133 9.97852ZM68.7031 9V18H67.6133V9H68.7031ZM74.1816 16.916V13.6523C74.1816 13.4023 74.1309 13.1855 74.0293 13.002C73.9316 12.8145 73.7832 12.6699 73.584 12.5684C73.3848 12.4668 73.1387 12.416 72.8457 12.416C72.5723 12.416 72.332 12.4629 72.125 12.5566C71.9219 12.6504 71.7617 12.7734 71.6445 12.9258C71.5312 13.0781 71.4746 13.2422 71.4746 13.418H70.3906C70.3906 13.1914 70.4492 12.9668 70.5664 12.7441C70.6836 12.5215 70.8516 12.3203 71.0703 12.1406C71.293 11.957 71.5586 11.8125 71.8672 11.707C72.1797 11.5977 72.5273 11.543 72.9102 11.543C73.3711 11.543 73.7773 11.6211 74.1289 11.7773C74.4844 11.9336 74.7617 12.1699 74.9609 12.4863C75.1641 12.7988 75.2656 13.1914 75.2656 13.6641V16.6172C75.2656 16.8281 75.2832 17.0527 75.3184 17.291C75.3574 17.5293 75.4141 17.7344 75.4883 17.9062V18H74.3574C74.3027 17.875 74.2598 17.709 74.2285 17.502C74.1973 17.291 74.1816 17.0957 74.1816 16.916ZM74.3691 14.1562L74.3809 14.918H73.2852C72.9766 14.918 72.7012 14.9434 72.459 14.9941C72.2168 15.041 72.0137 15.1133 71.8496 15.2109C71.6855 15.3086 71.5605 15.4316 71.4746 15.5801C71.3887 15.7246 71.3457 15.8945 71.3457 16.0898C71.3457 16.2891 71.3906 16.4707 71.4805 16.6348C71.5703 16.7988 71.7051 16.9297 71.8848 17.0273C72.0684 17.1211 72.293 17.168 72.5586 17.168C72.8906 17.168 73.1836 17.0977 73.4375 16.957C73.6914 16.8164 73.8926 16.6445 74.041 16.4414C74.1934 16.2383 74.2754 16.041 74.2871 15.8496L74.75 16.3711C74.7227 16.5352 74.6484 16.7168 74.5273 16.916C74.4062 17.1152 74.2441 17.3066 74.041 17.4902C73.8418 17.6699 73.6035 17.8203 73.3262 17.9414C73.0527 18.0586 72.7441 18.1172 72.4004 18.1172C71.9707 18.1172 71.5938 18.0332 71.2695 17.8652C70.9492 17.6973 70.6992 17.4727 70.5195 17.1914C70.3438 16.9062 70.2559 16.5879 70.2559 16.2363C70.2559 15.8965 70.3223 15.5977 70.4551 15.3398C70.5879 15.0781 70.7793 14.8613 71.0293 14.6895C71.2793 14.5137 71.5801 14.3809 71.9316 14.291C72.2832 14.2012 72.6758 14.1562 73.1094 14.1562H74.3691ZM76.9648 9H78.0547V16.7695L77.9609 18H76.9648V9ZM82.3379 14.7773V14.9004C82.3379 15.3613 82.2832 15.7891 82.1738 16.1836C82.0645 16.5742 81.9043 16.9141 81.6934 17.2031C81.4824 17.4922 81.2246 17.7168 80.9199 17.877C80.6152 18.0371 80.2656 18.1172 79.8711 18.1172C79.4688 18.1172 79.1152 18.0488 78.8105 17.9121C78.5098 17.7715 78.2559 17.5703 78.0488 17.3086C77.8418 17.0469 77.6758 16.7305 77.5508 16.3594C77.4297 15.9883 77.3457 15.5703 77.2988 15.1055V14.5664C77.3457 14.0977 77.4297 13.6777 77.5508 13.3066C77.6758 12.9355 77.8418 12.6191 78.0488 12.3574C78.2559 12.0918 78.5098 11.8906 78.8105 11.7539C79.1113 11.6133 79.4609 11.543 79.8594 11.543C80.2578 11.543 80.6113 11.6211 80.9199 11.7773C81.2285 11.9297 81.4863 12.1484 81.6934 12.4336C81.9043 12.7188 82.0645 13.0605 82.1738 13.459C82.2832 13.8535 82.3379 14.293 82.3379 14.7773ZM81.248 14.9004V14.7773C81.248 14.4609 81.2188 14.1641 81.1602 13.8867C81.1016 13.6055 81.0078 13.3594 80.8789 13.1484C80.75 12.9336 80.5801 12.7656 80.3691 12.6445C80.1582 12.5195 79.8984 12.457 79.5898 12.457C79.3164 12.457 79.0781 12.5039 78.875 12.5977C78.6758 12.6914 78.5059 12.8184 78.3652 12.9785C78.2246 13.1348 78.1094 13.3145 78.0195 13.5176C77.9336 13.7168 77.8691 13.9238 77.8262 14.1387V15.5508C77.8887 15.8242 77.9902 16.0879 78.1309 16.3418C78.2754 16.5918 78.4668 16.7969 78.7051 16.957C78.9473 17.1172 79.2461 17.1973 79.6016 17.1973C79.8945 17.1973 80.1445 17.1387 80.3516 17.0215C80.5625 16.9004 80.7324 16.7344 80.8613 16.5234C80.9941 16.3125 81.0918 16.0684 81.1543 15.791C81.2168 15.5137 81.248 15.2168 81.248 14.9004ZM84.8867 9V18H83.7969V9H84.8867ZM89.2578 18.1172C88.8164 18.1172 88.416 18.043 88.0566 17.8945C87.7012 17.7422 87.3945 17.5293 87.1367 17.2559C86.8828 16.9824 86.6875 16.6582 86.5508 16.2832C86.4141 15.9082 86.3457 15.498 86.3457 15.0527V14.8066C86.3457 14.291 86.4219 13.832 86.5742 13.4297C86.7266 13.0234 86.9336 12.6797 87.1953 12.3984C87.457 12.1172 87.7539 11.9043 88.0859 11.7598C88.418 11.6152 88.7617 11.543 89.1172 11.543C89.5703 11.543 89.9609 11.6211 90.2891 11.7773C90.6211 11.9336 90.8926 12.1523 91.1035 12.4336C91.3145 12.7109 91.4707 13.0391 91.5723 13.418C91.6738 13.793 91.7246 14.2031 91.7246 14.6484V15.1348H86.9902V14.25H90.6406V14.168C90.625 13.8867 90.5664 13.6133 90.4648 13.3477C90.3672 13.082 90.2109 12.8633 89.9961 12.6914C89.7812 12.5195 89.4883 12.4336 89.1172 12.4336C88.8711 12.4336 88.6445 12.4863 88.4375 12.5918C88.2305 12.6934 88.0527 12.8457 87.9043 13.0488C87.7559 13.252 87.6406 13.5 87.5586 13.793C87.4766 14.0859 87.4355 14.4238 87.4355 14.8066V15.0527C87.4355 15.3535 87.4766 15.6367 87.5586 15.9023C87.6445 16.1641 87.7676 16.3945 87.9277 16.5938C88.0918 16.793 88.2891 16.9492 88.5195 17.0625C88.7539 17.1758 89.0195 17.2324 89.3164 17.2324C89.6992 17.2324 90.0234 17.1543 90.2891 16.998C90.5547 16.8418 90.7871 16.6328 90.9863 16.3711L91.6426 16.8926C91.5059 17.0996 91.332 17.2969 91.1211 17.4844C90.9102 17.6719 90.6504 17.8242 90.3418 17.9414C90.0371 18.0586 89.6758 18.1172 89.2578 18.1172ZM95.6797 14.9004V14.7656C95.6797 14.3086 95.7461 13.8848 95.8789 13.4941C96.0117 13.0996 96.2031 12.7578 96.4531 12.4688C96.7031 12.1758 97.0059 11.9492 97.3613 11.7891C97.7168 11.625 98.1152 11.543 98.5566 11.543C99.002 11.543 99.4023 11.625 99.7578 11.7891C100.117 11.9492 100.422 12.1758 100.672 12.4688C100.926 12.7578 101.119 13.0996 101.252 13.4941C101.385 13.8848 101.451 14.3086 101.451 14.7656V14.9004C101.451 15.3574 101.385 15.7812 101.252 16.1719C101.119 16.5625 100.926 16.9043 100.672 17.1973C100.422 17.4863 100.119 17.7129 99.7637 17.877C99.4121 18.0371 99.0137 18.1172 98.5684 18.1172C98.123 18.1172 97.7227 18.0371 97.3672 17.877C97.0117 17.7129 96.707 17.4863 96.4531 17.1973C96.2031 16.9043 96.0117 16.5625 95.8789 16.1719C95.7461 15.7812 95.6797 15.3574 95.6797 14.9004ZM96.7637 14.7656V14.9004C96.7637 15.2168 96.8008 15.5156 96.875 15.7969C96.9492 16.0742 97.0605 16.3203 97.209 16.5352C97.3613 16.75 97.5508 16.9199 97.7773 17.0449C98.0039 17.166 98.2676 17.2266 98.5684 17.2266C98.8652 17.2266 99.125 17.166 99.3477 17.0449C99.5742 16.9199 99.7617 16.75 99.9102 16.5352C100.059 16.3203 100.17 16.0742 100.244 15.7969C100.322 15.5156 100.361 15.2168 100.361 14.9004V14.7656C100.361 14.4531 100.322 14.1582 100.244 13.8809C100.17 13.5996 100.057 13.3516 99.9043 13.1367C99.7559 12.918 99.5684 12.7461 99.3418 12.6211C99.1191 12.4961 98.8574 12.4336 98.5566 12.4336C98.2598 12.4336 97.998 12.4961 97.7715 12.6211C97.5488 12.7461 97.3613 12.918 97.209 13.1367C97.0605 13.3516 96.9492 13.5996 96.875 13.8809C96.8008 14.1582 96.7637 14.4531 96.7637 14.7656ZM103.895 13.0137V18H102.811V11.6602H103.836L103.895 13.0137ZM103.637 14.5898L103.186 14.5723C103.189 14.1387 103.254 13.7383 103.379 13.3711C103.504 13 103.68 12.6777 103.906 12.4043C104.133 12.1309 104.402 11.9199 104.715 11.7715C105.031 11.6191 105.381 11.543 105.764 11.543C106.076 11.543 106.357 11.5859 106.607 11.6719C106.857 11.7539 107.07 11.8867 107.246 12.0703C107.426 12.2539 107.562 12.4922 107.656 12.7852C107.75 13.0742 107.797 13.4277 107.797 13.8457V18H106.707V13.834C106.707 13.502 106.658 13.2363 106.561 13.0371C106.463 12.834 106.32 12.6875 106.133 12.5977C105.945 12.5039 105.715 12.457 105.441 12.457C105.172 12.457 104.926 12.5137 104.703 12.627C104.484 12.7402 104.295 12.8965 104.135 13.0957C103.979 13.2949 103.855 13.5234 103.766 13.7812C103.68 14.0352 103.637 14.3047 103.637 14.5898ZM48.9082 27.5576L46.0713 36H44.082L47.8008 26.0469H49.0723L48.9082 27.5576ZM51.2803 36L48.4297 27.5576L48.2588 26.0469H49.5371L53.2764 36H51.2803ZM51.1504 32.3018V33.7852H45.8115V32.3018H51.1504ZM55.792 30.0254V38.8438H53.9805V28.6035H55.6553L55.792 30.0254ZM60.543 32.2266V32.3701C60.543 32.9079 60.4792 33.4069 60.3516 33.8672C60.2285 34.3229 60.0462 34.7217 59.8047 35.0635C59.5632 35.4007 59.2624 35.665 58.9023 35.8564C58.5469 36.0433 58.1367 36.1367 57.6719 36.1367C57.2161 36.1367 56.8197 36.0501 56.4824 35.877C56.1452 35.6992 55.8604 35.4486 55.6279 35.125C55.3955 34.8014 55.2087 34.4255 55.0674 33.9971C54.9307 33.5641 54.8281 33.0924 54.7598 32.582V32.124C54.8281 31.5817 54.9307 31.0895 55.0674 30.6475C55.2087 30.2008 55.3955 29.8158 55.6279 29.4922C55.8604 29.1641 56.1429 28.9111 56.4756 28.7334C56.8128 28.5557 57.207 28.4668 57.6582 28.4668C58.1276 28.4668 58.54 28.5557 58.8955 28.7334C59.2555 28.9111 59.5586 29.1663 59.8047 29.499C60.0508 29.8317 60.2354 30.2282 60.3584 30.6885C60.4814 31.1488 60.543 31.6615 60.543 32.2266ZM58.7314 32.3701V32.2266C58.7314 31.8984 58.7018 31.5954 58.6426 31.3174C58.5833 31.0348 58.4922 30.7887 58.3691 30.5791C58.2461 30.3649 58.0866 30.1986 57.8906 30.0801C57.6947 29.9616 57.4577 29.9023 57.1797 29.9023C56.9017 29.9023 56.6624 29.9479 56.4619 30.0391C56.2614 30.1302 56.0973 30.2601 55.9697 30.4287C55.8421 30.5973 55.7419 30.7979 55.6689 31.0303C55.6006 31.2581 55.555 31.5111 55.5322 31.7891V32.9238C55.5732 33.2611 55.653 33.5641 55.7715 33.833C55.89 34.1019 56.0632 34.3161 56.291 34.4756C56.5234 34.6351 56.8242 34.7148 57.1934 34.7148C57.4714 34.7148 57.7083 34.6533 57.9043 34.5303C58.1003 34.4072 58.2598 34.2386 58.3828 34.0244C58.5059 33.8057 58.5947 33.555 58.6494 33.2725C58.7041 32.9899 58.7314 32.6891 58.7314 32.3701ZM63.667 30.0254V38.8438H61.8555V28.6035H63.5303L63.667 30.0254ZM68.418 32.2266V32.3701C68.418 32.9079 68.3542 33.4069 68.2266 33.8672C68.1035 34.3229 67.9212 34.7217 67.6797 35.0635C67.4382 35.4007 67.1374 35.665 66.7773 35.8564C66.4219 36.0433 66.0117 36.1367 65.5469 36.1367C65.0911 36.1367 64.6947 36.0501 64.3574 35.877C64.0202 35.6992 63.7354 35.4486 63.5029 35.125C63.2705 34.8014 63.0837 34.4255 62.9424 33.9971C62.8057 33.5641 62.7031 33.0924 62.6348 32.582V32.124C62.7031 31.5817 62.8057 31.0895 62.9424 30.6475C63.0837 30.2008 63.2705 29.8158 63.5029 29.4922C63.7354 29.1641 64.0179 28.9111 64.3506 28.7334C64.6878 28.5557 65.082 28.4668 65.5332 28.4668C66.0026 28.4668 66.415 28.5557 66.7705 28.7334C67.1305 28.9111 67.4336 29.1663 67.6797 29.499C67.9258 29.8317 68.1104 30.2282 68.2334 30.6885C68.3564 31.1488 68.418 31.6615 68.418 32.2266ZM66.6064 32.3701V32.2266C66.6064 31.8984 66.5768 31.5954 66.5176 31.3174C66.4583 31.0348 66.3672 30.7887 66.2441 30.5791C66.1211 30.3649 65.9616 30.1986 65.7656 30.0801C65.5697 29.9616 65.3327 29.9023 65.0547 29.9023C64.7767 29.9023 64.5374 29.9479 64.3369 30.0391C64.1364 30.1302 63.9723 30.2601 63.8447 30.4287C63.7171 30.5973 63.6169 30.7979 63.5439 31.0303C63.4756 31.2581 63.43 31.5111 63.4072 31.7891V32.9238C63.4482 33.2611 63.528 33.5641 63.6465 33.833C63.765 34.1019 63.9382 34.3161 64.166 34.4756C64.3984 34.6351 64.6992 34.7148 65.0684 34.7148C65.3464 34.7148 65.5833 34.6533 65.7793 34.5303C65.9753 34.4072 66.1348 34.2386 66.2578 34.0244C66.3809 33.8057 66.4697 33.555 66.5244 33.2725C66.5791 32.9899 66.6064 32.6891 66.6064 32.3701ZM78.5693 33.416C78.5693 33.2246 78.5397 33.0537 78.4805 32.9033C78.4258 32.7484 78.3232 32.6094 78.1729 32.4863C78.027 32.3587 77.8197 32.2357 77.5508 32.1172C77.2865 31.9941 76.9447 31.8665 76.5254 31.7344C76.0605 31.5885 75.6276 31.4245 75.2266 31.2422C74.8255 31.0599 74.4723 30.848 74.167 30.6064C73.8662 30.3649 73.6315 30.0869 73.4629 29.7725C73.2943 29.4535 73.21 29.0843 73.21 28.665C73.21 28.2549 73.2965 27.8812 73.4697 27.5439C73.6475 27.2067 73.8981 26.9173 74.2217 26.6758C74.5452 26.4297 74.9258 26.2406 75.3633 26.1084C75.8053 25.9762 76.293 25.9102 76.8262 25.9102C77.5645 25.9102 78.2025 26.0446 78.7402 26.3135C79.2826 26.5824 79.7018 26.9469 79.998 27.4072C80.2943 27.8675 80.4424 28.3848 80.4424 28.959H78.5693C78.5693 28.6491 78.5033 28.3757 78.3711 28.1387C78.2435 27.9017 78.0475 27.7148 77.7832 27.5781C77.5234 27.4414 77.1953 27.373 76.7988 27.373C76.416 27.373 76.097 27.43 75.8418 27.5439C75.5911 27.6579 75.402 27.8128 75.2744 28.0088C75.1514 28.2048 75.0898 28.4235 75.0898 28.665C75.0898 28.8473 75.1331 29.0114 75.2197 29.1572C75.3063 29.2985 75.4362 29.4329 75.6094 29.5605C75.7826 29.6836 75.9967 29.7998 76.252 29.9092C76.5117 30.014 76.8125 30.1188 77.1543 30.2236C77.7012 30.3877 78.1797 30.57 78.5898 30.7705C79.0046 30.971 79.3486 31.1989 79.6221 31.4541C79.9001 31.7093 80.1074 31.9964 80.2441 32.3154C80.3854 32.6344 80.4561 32.9967 80.4561 33.4023C80.4561 33.8307 80.3717 34.2135 80.2031 34.5508C80.0345 34.888 79.793 35.1751 79.4785 35.4121C79.1641 35.6491 78.7858 35.8291 78.3438 35.9521C77.9062 36.0752 77.4163 36.1367 76.874 36.1367C76.391 36.1367 75.9124 36.0729 75.4385 35.9453C74.9691 35.8132 74.543 35.6172 74.1602 35.3574C73.7773 35.0931 73.472 34.7604 73.2441 34.3594C73.0163 33.9538 72.9023 33.4798 72.9023 32.9375H74.7891C74.7891 33.252 74.8392 33.5208 74.9395 33.7441C75.0443 33.9629 75.1901 34.1429 75.377 34.2842C75.5684 34.4209 75.7917 34.5212 76.0469 34.585C76.3021 34.6488 76.5778 34.6807 76.874 34.6807C77.2568 34.6807 77.5713 34.6283 77.8174 34.5234C78.068 34.4141 78.2549 34.2637 78.3779 34.0723C78.5055 33.8809 78.5693 33.6621 78.5693 33.416ZM85.2686 28.6035V29.9023H81.0303V28.6035H85.2686ZM82.165 26.7852H83.9766V33.8672C83.9766 34.0859 84.0062 34.2546 84.0654 34.373C84.1247 34.4915 84.2135 34.5713 84.332 34.6123C84.4505 34.6533 84.5918 34.6738 84.7559 34.6738C84.8743 34.6738 84.9837 34.667 85.084 34.6533C85.1842 34.6396 85.2686 34.626 85.3369 34.6123L85.3438 35.9658C85.1934 36.016 85.0225 36.057 84.8311 36.0889C84.6442 36.1208 84.4323 36.1367 84.1953 36.1367C83.7897 36.1367 83.4342 36.0684 83.1289 35.9316C82.8236 35.7904 82.5866 35.5648 82.418 35.2549C82.2493 34.9404 82.165 34.5257 82.165 34.0107V26.7852ZM85.9727 32.377V32.2334C85.9727 31.6911 86.0501 31.1921 86.2051 30.7363C86.36 30.276 86.5856 29.8773 86.8818 29.54C87.1781 29.2028 87.5404 28.9408 87.9688 28.7539C88.3971 28.5625 88.8848 28.4668 89.4316 28.4668C89.9876 28.4668 90.4798 28.5625 90.9082 28.7539C91.3411 28.9408 91.7057 29.2028 92.002 29.54C92.2982 29.8773 92.5238 30.276 92.6787 30.7363C92.8337 31.1921 92.9111 31.6911 92.9111 32.2334V32.377C92.9111 32.9147 92.8337 33.4137 92.6787 33.874C92.5238 34.3298 92.2982 34.7285 92.002 35.0703C91.7057 35.4076 91.3434 35.6696 90.915 35.8564C90.4867 36.0433 89.9967 36.1367 89.4453 36.1367C88.8984 36.1367 88.4085 36.0433 87.9756 35.8564C87.5426 35.6696 87.1781 35.4076 86.8818 35.0703C86.5856 34.7285 86.36 34.3298 86.2051 33.874C86.0501 33.4137 85.9727 32.9147 85.9727 32.377ZM87.7773 32.2334V32.377C87.7773 32.7005 87.8092 33.0036 87.873 33.2861C87.9368 33.5687 88.0348 33.8171 88.167 34.0312C88.2992 34.2454 88.4701 34.4141 88.6797 34.5371C88.8939 34.6556 89.1491 34.7148 89.4453 34.7148C89.737 34.7148 89.9876 34.6556 90.1973 34.5371C90.4069 34.4141 90.5778 34.2454 90.71 34.0312C90.8467 33.8171 90.9469 33.5687 91.0107 33.2861C91.0745 33.0036 91.1064 32.7005 91.1064 32.377V32.2334C91.1064 31.9144 91.0745 31.6159 91.0107 31.3379C90.9469 31.0553 90.8467 30.807 90.71 30.5928C90.5778 30.374 90.4046 30.2031 90.1904 30.0801C89.9808 29.9525 89.7279 29.8887 89.4316 29.8887C89.14 29.8887 88.8893 29.9525 88.6797 30.0801C88.4701 30.2031 88.2992 30.374 88.167 30.5928C88.0348 30.807 87.9368 31.0553 87.873 31.3379C87.8092 31.6159 87.7773 31.9144 87.7773 32.2334ZM96.0283 30.1143V36H94.2236V28.6035H95.9326L96.0283 30.1143ZM98.2773 28.5557L98.25 30.2373C98.1497 30.2191 98.0358 30.2054 97.9082 30.1963C97.7852 30.1872 97.6689 30.1826 97.5596 30.1826C97.2816 30.1826 97.0378 30.2214 96.8281 30.2988C96.6185 30.3717 96.443 30.4788 96.3018 30.6201C96.165 30.7614 96.0602 30.9346 95.9873 31.1396C95.9144 31.3402 95.8734 31.568 95.8643 31.8232L95.4746 31.7754C95.4746 31.306 95.5225 30.8708 95.6182 30.4697C95.7139 30.0687 95.8529 29.7178 96.0352 29.417C96.2174 29.1162 96.4453 28.8838 96.7188 28.7197C96.9967 28.5511 97.3158 28.4668 97.6758 28.4668C97.776 28.4668 97.8831 28.4759 97.9971 28.4941C98.1156 28.5078 98.209 28.5283 98.2773 28.5557ZM102.454 36.1367C101.894 36.1367 101.39 36.0456 100.943 35.8633C100.497 35.681 100.116 35.4281 99.8018 35.1045C99.4919 34.7764 99.2526 34.3958 99.084 33.9629C98.9199 33.5254 98.8379 33.056 98.8379 32.5547V32.2812C98.8379 31.7116 98.9199 31.1943 99.084 30.7295C99.248 30.2601 99.4805 29.8568 99.7812 29.5195C100.082 29.1823 100.442 28.9225 100.861 28.7402C101.281 28.5579 101.743 28.4668 102.249 28.4668C102.773 28.4668 103.236 28.5557 103.637 28.7334C104.038 28.9066 104.373 29.1527 104.642 29.4717C104.91 29.7907 105.113 30.1735 105.25 30.6201C105.387 31.0622 105.455 31.5521 105.455 32.0898V32.8486H99.6582V31.6045H103.678V31.4678C103.669 31.1807 103.614 30.9186 103.514 30.6816C103.413 30.4401 103.258 30.2487 103.049 30.1074C102.839 29.9616 102.568 29.8887 102.235 29.8887C101.966 29.8887 101.732 29.9479 101.531 30.0664C101.335 30.1803 101.171 30.3444 101.039 30.5586C100.911 30.7682 100.816 31.0189 100.752 31.3105C100.688 31.6022 100.656 31.9258 100.656 32.2812V32.5547C100.656 32.8646 100.697 33.1517 100.779 33.416C100.866 33.6803 100.991 33.9105 101.155 34.1064C101.324 34.2979 101.524 34.4482 101.757 34.5576C101.994 34.6624 102.263 34.7148 102.563 34.7148C102.942 34.7148 103.284 34.6419 103.589 34.4961C103.899 34.3457 104.168 34.1247 104.396 33.833L105.305 34.7764C105.15 35.0042 104.94 35.223 104.676 35.4326C104.416 35.6423 104.102 35.8132 103.732 35.9453C103.363 36.0729 102.937 36.1367 102.454 36.1367Z" fill="#BDE8FA"/>
</svg>
