<svg width="43" height="55" viewBox="0 0 43 55" fill="none" xmlns="http://www.w3.org/2000/svg">
<path d="M26.4151 30C26.4151 30 18.3484 30 17.5544 30C17.1586 29.8644 18.8717 29.0795 24.3497 21.0331C25.3728 19.5303 26.1757 18.1573 26.4151 17.0951L26.5 16.4121C26.5 13.9171 24.293 12 21.8661 12C19.7306 12 17.951 13.566 17.5544 15.6419" stroke="#283F7E" stroke-width="2" stroke-miterlimit="10" stroke-linecap="round" stroke-linejoin="round"/>
<path d="M35.5 36L41.8031 47.4354L41.7619 47.4571L32.4808 44.9442L29.2468 54L23.5 42" stroke="#283F7E" stroke-width="2" stroke-miterlimit="10" stroke-linejoin="round"/>
<path d="M7.49854 36L1.19531 47.4354L1.23632 47.4571L10.5176 44.9442L13.7515 54L19.4985 42" stroke="#283F7E" stroke-width="2" stroke-miterlimit="10" stroke-linejoin="round"/>
<path d="M21.5001 41.9667C10.4721 41.9667 1.5 32.9948 1.5 21.9666C1.5 10.9386 10.4721 1.96665 21.5001 1.96665C32.5281 1.96665 41.5002 10.9386 41.5002 21.9666C41.5002 32.9948 32.5281 41.9667 21.5001 41.9667Z" stroke="#283F7E" stroke-width="2" stroke-miterlimit="10" stroke-linejoin="round"/>
</svg>
