<svg width="126" height="46" viewBox="0 0 126 46" fill="none" xmlns="http://www.w3.org/2000/svg">
<rect x="0.5" y="0.5" width="125" height="45" rx="7.5" stroke="#BDE8FA"/>
<path d="M26.4189 18.029L22.2635 22.2111L9.12347 9.11462C9.68489 8.89431 10.2463 9.00446 10.8084 9.33492L26.4189 18.029ZM8 10.9854C8 10.4352 8.11241 10.1048 8.22482 9.77492L21.4773 22.9816L8.33723 36.2984C8.11241 35.9685 8 35.6381 8 35.0879V10.986V10.9854ZM32.8206 21.4407L27.5418 18.469L23.1615 22.8714L27.6542 27.384L32.8206 24.5225C34.3931 23.752 34.3931 22.3213 32.8206 21.4407ZM9.12284 36.9587L22.2629 23.752L26.5307 27.9341L10.8071 36.6288C10.1333 36.9587 9.57186 37.0688 9.12222 36.9587H9.12284Z" fill="#BDE8FA"/>
<path d="M46.1484 10.2246L43.3242 18H42.1699L45.4219 9.46875H46.166L46.1484 10.2246ZM48.5156 18L45.6855 10.2246L45.668 9.46875H46.4121L49.6758 18H48.5156ZM48.3691 14.8418V15.7676H43.5762V14.8418H48.3691ZM52.2891 17.0215L54.0234 11.6602H55.1309L52.8516 18H52.125L52.2891 17.0215ZM50.8418 11.6602L52.6289 17.0508L52.752 18H52.0254L49.7285 11.6602H50.8418ZM59.8184 16.916V13.6523C59.8184 13.4023 59.7676 13.1855 59.666 13.002C59.5684 12.8145 59.4199 12.6699 59.2207 12.5684C59.0215 12.4668 58.7754 12.416 58.4824 12.416C58.209 12.416 57.9688 12.4629 57.7617 12.5566C57.5586 12.6504 57.3984 12.7734 57.2812 12.9258C57.168 13.0781 57.1113 13.2422 57.1113 13.418H56.0273C56.0273 13.1914 56.0859 12.9668 56.2031 12.7441C56.3203 12.5215 56.4883 12.3203 56.707 12.1406C56.9297 11.957 57.1953 11.8125 57.5039 11.707C57.8164 11.5977 58.1641 11.543 58.5469 11.543C59.0078 11.543 59.4141 11.6211 59.7656 11.7773C60.1211 11.9336 60.3984 12.1699 60.5977 12.4863C60.8008 12.7988 60.9023 13.1914 60.9023 13.6641V16.6172C60.9023 16.8281 60.9199 17.0527 60.9551 17.291C60.9941 17.5293 61.0508 17.7344 61.125 17.9062V18H59.9941C59.9395 17.875 59.8965 17.709 59.8652 17.502C59.834 17.291 59.8184 17.0957 59.8184 16.916ZM60.0059 14.1562L60.0176 14.918H58.9219C58.6133 14.918 58.3379 14.9434 58.0957 14.9941C57.8535 15.041 57.6504 15.1133 57.4863 15.2109C57.3223 15.3086 57.1973 15.4316 57.1113 15.5801C57.0254 15.7246 56.9824 15.8945 56.9824 16.0898C56.9824 16.2891 57.0273 16.4707 57.1172 16.6348C57.207 16.7988 57.3418 16.9297 57.5215 17.0273C57.7051 17.1211 57.9297 17.168 58.1953 17.168C58.5273 17.168 58.8203 17.0977 59.0742 16.957C59.3281 16.8164 59.5293 16.6445 59.6777 16.4414C59.8301 16.2383 59.9121 16.041 59.9238 15.8496L60.3867 16.3711C60.3594 16.5352 60.2852 16.7168 60.1641 16.916C60.043 17.1152 59.8809 17.3066 59.6777 17.4902C59.4785 17.6699 59.2402 17.8203 58.9629 17.9414C58.6895 18.0586 58.3809 18.1172 58.0371 18.1172C57.6074 18.1172 57.2305 18.0332 56.9062 17.8652C56.5859 17.6973 56.3359 17.4727 56.1562 17.1914C55.9805 16.9062 55.8926 16.5879 55.8926 16.2363C55.8926 15.8965 55.959 15.5977 56.0918 15.3398C56.2246 15.0781 56.416 14.8613 56.666 14.6895C56.916 14.5137 57.2168 14.3809 57.5684 14.291C57.9199 14.2012 58.3125 14.1562 58.7461 14.1562H60.0059ZM63.7852 11.6602V18H62.6953V11.6602H63.7852ZM62.6133 9.97852C62.6133 9.80273 62.666 9.6543 62.7715 9.5332C62.8809 9.41211 63.041 9.35156 63.252 9.35156C63.459 9.35156 63.6172 9.41211 63.7266 9.5332C63.8398 9.6543 63.8965 9.80273 63.8965 9.97852C63.8965 10.1465 63.8398 10.291 63.7266 10.4121C63.6172 10.5293 63.459 10.5879 63.252 10.5879C63.041 10.5879 62.8809 10.5293 62.7715 10.4121C62.666 10.291 62.6133 10.1465 62.6133 9.97852ZM66.7031 9V18H65.6133V9H66.7031ZM72.1816 16.916V13.6523C72.1816 13.4023 72.1309 13.1855 72.0293 13.002C71.9316 12.8145 71.7832 12.6699 71.584 12.5684C71.3848 12.4668 71.1387 12.416 70.8457 12.416C70.5723 12.416 70.332 12.4629 70.125 12.5566C69.9219 12.6504 69.7617 12.7734 69.6445 12.9258C69.5312 13.0781 69.4746 13.2422 69.4746 13.418H68.3906C68.3906 13.1914 68.4492 12.9668 68.5664 12.7441C68.6836 12.5215 68.8516 12.3203 69.0703 12.1406C69.293 11.957 69.5586 11.8125 69.8672 11.707C70.1797 11.5977 70.5273 11.543 70.9102 11.543C71.3711 11.543 71.7773 11.6211 72.1289 11.7773C72.4844 11.9336 72.7617 12.1699 72.9609 12.4863C73.1641 12.7988 73.2656 13.1914 73.2656 13.6641V16.6172C73.2656 16.8281 73.2832 17.0527 73.3184 17.291C73.3574 17.5293 73.4141 17.7344 73.4883 17.9062V18H72.3574C72.3027 17.875 72.2598 17.709 72.2285 17.502C72.1973 17.291 72.1816 17.0957 72.1816 16.916ZM72.3691 14.1562L72.3809 14.918H71.2852C70.9766 14.918 70.7012 14.9434 70.459 14.9941C70.2168 15.041 70.0137 15.1133 69.8496 15.2109C69.6855 15.3086 69.5605 15.4316 69.4746 15.5801C69.3887 15.7246 69.3457 15.8945 69.3457 16.0898C69.3457 16.2891 69.3906 16.4707 69.4805 16.6348C69.5703 16.7988 69.7051 16.9297 69.8848 17.0273C70.0684 17.1211 70.293 17.168 70.5586 17.168C70.8906 17.168 71.1836 17.0977 71.4375 16.957C71.6914 16.8164 71.8926 16.6445 72.041 16.4414C72.1934 16.2383 72.2754 16.041 72.2871 15.8496L72.75 16.3711C72.7227 16.5352 72.6484 16.7168 72.5273 16.916C72.4062 17.1152 72.2441 17.3066 72.041 17.4902C71.8418 17.6699 71.6035 17.8203 71.3262 17.9414C71.0527 18.0586 70.7441 18.1172 70.4004 18.1172C69.9707 18.1172 69.5938 18.0332 69.2695 17.8652C68.9492 17.6973 68.6992 17.4727 68.5195 17.1914C68.3438 16.9062 68.2559 16.5879 68.2559 16.2363C68.2559 15.8965 68.3223 15.5977 68.4551 15.3398C68.5879 15.0781 68.7793 14.8613 69.0293 14.6895C69.2793 14.5137 69.5801 14.3809 69.9316 14.291C70.2832 14.2012 70.6758 14.1562 71.1094 14.1562H72.3691ZM74.9648 9H76.0547V16.7695L75.9609 18H74.9648V9ZM80.3379 14.7773V14.9004C80.3379 15.3613 80.2832 15.7891 80.1738 16.1836C80.0645 16.5742 79.9043 16.9141 79.6934 17.2031C79.4824 17.4922 79.2246 17.7168 78.9199 17.877C78.6152 18.0371 78.2656 18.1172 77.8711 18.1172C77.4688 18.1172 77.1152 18.0488 76.8105 17.9121C76.5098 17.7715 76.2559 17.5703 76.0488 17.3086C75.8418 17.0469 75.6758 16.7305 75.5508 16.3594C75.4297 15.9883 75.3457 15.5703 75.2988 15.1055V14.5664C75.3457 14.0977 75.4297 13.6777 75.5508 13.3066C75.6758 12.9355 75.8418 12.6191 76.0488 12.3574C76.2559 12.0918 76.5098 11.8906 76.8105 11.7539C77.1113 11.6133 77.4609 11.543 77.8594 11.543C78.2578 11.543 78.6113 11.6211 78.9199 11.7773C79.2285 11.9297 79.4863 12.1484 79.6934 12.4336C79.9043 12.7188 80.0645 13.0605 80.1738 13.459C80.2832 13.8535 80.3379 14.293 80.3379 14.7773ZM79.248 14.9004V14.7773C79.248 14.4609 79.2188 14.1641 79.1602 13.8867C79.1016 13.6055 79.0078 13.3594 78.8789 13.1484C78.75 12.9336 78.5801 12.7656 78.3691 12.6445C78.1582 12.5195 77.8984 12.457 77.5898 12.457C77.3164 12.457 77.0781 12.5039 76.875 12.5977C76.6758 12.6914 76.5059 12.8184 76.3652 12.9785C76.2246 13.1348 76.1094 13.3145 76.0195 13.5176C75.9336 13.7168 75.8691 13.9238 75.8262 14.1387V15.5508C75.8887 15.8242 75.9902 16.0879 76.1309 16.3418C76.2754 16.5918 76.4668 16.7969 76.7051 16.957C76.9473 17.1172 77.2461 17.1973 77.6016 17.1973C77.8945 17.1973 78.1445 17.1387 78.3516 17.0215C78.5625 16.9004 78.7324 16.7344 78.8613 16.5234C78.9941 16.3125 79.0918 16.0684 79.1543 15.791C79.2168 15.5137 79.248 15.2168 79.248 14.9004ZM82.8867 9V18H81.7969V9H82.8867ZM87.2578 18.1172C86.8164 18.1172 86.416 18.043 86.0566 17.8945C85.7012 17.7422 85.3945 17.5293 85.1367 17.2559C84.8828 16.9824 84.6875 16.6582 84.5508 16.2832C84.4141 15.9082 84.3457 15.498 84.3457 15.0527V14.8066C84.3457 14.291 84.4219 13.832 84.5742 13.4297C84.7266 13.0234 84.9336 12.6797 85.1953 12.3984C85.457 12.1172 85.7539 11.9043 86.0859 11.7598C86.418 11.6152 86.7617 11.543 87.1172 11.543C87.5703 11.543 87.9609 11.6211 88.2891 11.7773C88.6211 11.9336 88.8926 12.1523 89.1035 12.4336C89.3145 12.7109 89.4707 13.0391 89.5723 13.418C89.6738 13.793 89.7246 14.2031 89.7246 14.6484V15.1348H84.9902V14.25H88.6406V14.168C88.625 13.8867 88.5664 13.6133 88.4648 13.3477C88.3672 13.082 88.2109 12.8633 87.9961 12.6914C87.7812 12.5195 87.4883 12.4336 87.1172 12.4336C86.8711 12.4336 86.6445 12.4863 86.4375 12.5918C86.2305 12.6934 86.0527 12.8457 85.9043 13.0488C85.7559 13.252 85.6406 13.5 85.5586 13.793C85.4766 14.0859 85.4355 14.4238 85.4355 14.8066V15.0527C85.4355 15.3535 85.4766 15.6367 85.5586 15.9023C85.6445 16.1641 85.7676 16.3945 85.9277 16.5938C86.0918 16.793 86.2891 16.9492 86.5195 17.0625C86.7539 17.1758 87.0195 17.2324 87.3164 17.2324C87.6992 17.2324 88.0234 17.1543 88.2891 16.998C88.5547 16.8418 88.7871 16.6328 88.9863 16.3711L89.6426 16.8926C89.5059 17.0996 89.332 17.2969 89.1211 17.4844C88.9102 17.6719 88.6504 17.8242 88.3418 17.9414C88.0371 18.0586 87.6758 18.1172 87.2578 18.1172ZM93.6797 14.9004V14.7656C93.6797 14.3086 93.7461 13.8848 93.8789 13.4941C94.0117 13.0996 94.2031 12.7578 94.4531 12.4688C94.7031 12.1758 95.0059 11.9492 95.3613 11.7891C95.7168 11.625 96.1152 11.543 96.5566 11.543C97.002 11.543 97.4023 11.625 97.7578 11.7891C98.1172 11.9492 98.4219 12.1758 98.6719 12.4688C98.9258 12.7578 99.1191 13.0996 99.252 13.4941C99.3848 13.8848 99.4512 14.3086 99.4512 14.7656V14.9004C99.4512 15.3574 99.3848 15.7812 99.252 16.1719C99.1191 16.5625 98.9258 16.9043 98.6719 17.1973C98.4219 17.4863 98.1191 17.7129 97.7637 17.877C97.4121 18.0371 97.0137 18.1172 96.5684 18.1172C96.123 18.1172 95.7227 18.0371 95.3672 17.877C95.0117 17.7129 94.707 17.4863 94.4531 17.1973C94.2031 16.9043 94.0117 16.5625 93.8789 16.1719C93.7461 15.7812 93.6797 15.3574 93.6797 14.9004ZM94.7637 14.7656V14.9004C94.7637 15.2168 94.8008 15.5156 94.875 15.7969C94.9492 16.0742 95.0605 16.3203 95.209 16.5352C95.3613 16.75 95.5508 16.9199 95.7773 17.0449C96.0039 17.166 96.2676 17.2266 96.5684 17.2266C96.8652 17.2266 97.125 17.166 97.3477 17.0449C97.5742 16.9199 97.7617 16.75 97.9102 16.5352C98.0586 16.3203 98.1699 16.0742 98.2441 15.7969C98.3223 15.5156 98.3613 15.2168 98.3613 14.9004V14.7656C98.3613 14.4531 98.3223 14.1582 98.2441 13.8809C98.1699 13.5996 98.0566 13.3516 97.9043 13.1367C97.7559 12.918 97.5684 12.7461 97.3418 12.6211C97.1191 12.4961 96.8574 12.4336 96.5566 12.4336C96.2598 12.4336 95.998 12.4961 95.7715 12.6211C95.5488 12.7461 95.3613 12.918 95.209 13.1367C95.0605 13.3516 94.9492 13.5996 94.875 13.8809C94.8008 14.1582 94.7637 14.4531 94.7637 14.7656ZM101.895 13.0137V18H100.811V11.6602H101.836L101.895 13.0137ZM101.637 14.5898L101.186 14.5723C101.189 14.1387 101.254 13.7383 101.379 13.3711C101.504 13 101.68 12.6777 101.906 12.4043C102.133 12.1309 102.402 11.9199 102.715 11.7715C103.031 11.6191 103.381 11.543 103.764 11.543C104.076 11.543 104.357 11.5859 104.607 11.6719C104.857 11.7539 105.07 11.8867 105.246 12.0703C105.426 12.2539 105.562 12.4922 105.656 12.7852C105.75 13.0742 105.797 13.4277 105.797 13.8457V18H104.707V13.834C104.707 13.502 104.658 13.2363 104.561 13.0371C104.463 12.834 104.32 12.6875 104.133 12.5977C103.945 12.5039 103.715 12.457 103.441 12.457C103.172 12.457 102.926 12.5137 102.703 12.627C102.484 12.7402 102.295 12.8965 102.135 13.0957C101.979 13.2949 101.855 13.5234 101.766 13.7812C101.68 14.0352 101.637 14.3047 101.637 14.5898ZM50.7158 30.8525V34.7285C50.57 34.9154 50.3398 35.1182 50.0254 35.3369C49.7155 35.5557 49.3099 35.7448 48.8086 35.9043C48.3073 36.0592 47.6921 36.1367 46.9629 36.1367C46.3294 36.1367 45.7507 36.0319 45.2266 35.8223C44.7025 35.6081 44.2513 35.2959 43.873 34.8857C43.4948 34.4756 43.2031 33.9743 42.998 33.3818C42.793 32.7894 42.6904 32.1126 42.6904 31.3516V30.6953C42.6904 29.9342 42.7861 29.2575 42.9775 28.665C43.1735 28.0726 43.4515 27.5713 43.8115 27.1611C44.1761 26.751 44.6113 26.4388 45.1172 26.2246C45.6276 26.0104 46.1973 25.9033 46.8262 25.9033C47.6693 25.9033 48.362 26.0423 48.9043 26.3203C49.4512 26.5983 49.8704 26.9811 50.1621 27.4688C50.4538 27.9518 50.6361 28.5078 50.709 29.1367H48.877C48.8268 28.7904 48.7266 28.4873 48.5762 28.2275C48.4258 27.9632 48.2116 27.7581 47.9336 27.6123C47.6602 27.4619 47.3047 27.3867 46.8672 27.3867C46.498 27.3867 46.1722 27.4596 45.8896 27.6055C45.6071 27.7513 45.3701 27.9632 45.1787 28.2412C44.9873 28.5192 44.8415 28.8633 44.7412 29.2734C44.6455 29.6836 44.5977 30.153 44.5977 30.6816V31.3516C44.5977 31.8848 44.6523 32.3587 44.7617 32.7734C44.8711 33.1836 45.0283 33.5299 45.2334 33.8125C45.443 34.0905 45.7005 34.3024 46.0059 34.4482C46.3158 34.5895 46.6667 34.6602 47.0586 34.6602C47.4141 34.6602 47.708 34.6305 47.9404 34.5713C48.1774 34.5075 48.3665 34.4323 48.5078 34.3457C48.6491 34.2591 48.7585 34.1748 48.8359 34.0928V32.2266H46.8604V30.8525H50.7158ZM52.0352 32.377V32.2334C52.0352 31.6911 52.1126 31.1921 52.2676 30.7363C52.4225 30.276 52.6481 29.8773 52.9443 29.54C53.2406 29.2028 53.6029 28.9408 54.0312 28.7539C54.4596 28.5625 54.9473 28.4668 55.4941 28.4668C56.0501 28.4668 56.5423 28.5625 56.9707 28.7539C57.4036 28.9408 57.7682 29.2028 58.0645 29.54C58.3607 29.8773 58.5863 30.276 58.7412 30.7363C58.8962 31.1921 58.9736 31.6911 58.9736 32.2334V32.377C58.9736 32.9147 58.8962 33.4137 58.7412 33.874C58.5863 34.3298 58.3607 34.7285 58.0645 35.0703C57.7682 35.4076 57.4059 35.6696 56.9775 35.8564C56.5492 36.0433 56.0592 36.1367 55.5078 36.1367C54.9609 36.1367 54.471 36.0433 54.0381 35.8564C53.6051 35.6696 53.2406 35.4076 52.9443 35.0703C52.6481 34.7285 52.4225 34.3298 52.2676 33.874C52.1126 33.4137 52.0352 32.9147 52.0352 32.377ZM53.8398 32.2334V32.377C53.8398 32.7005 53.8717 33.0036 53.9355 33.2861C53.9993 33.5687 54.0973 33.8171 54.2295 34.0312C54.3617 34.2454 54.5326 34.4141 54.7422 34.5371C54.9564 34.6556 55.2116 34.7148 55.5078 34.7148C55.7995 34.7148 56.0501 34.6556 56.2598 34.5371C56.4694 34.4141 56.6403 34.2454 56.7725 34.0312C56.9092 33.8171 57.0094 33.5687 57.0732 33.2861C57.137 33.0036 57.1689 32.7005 57.1689 32.377V32.2334C57.1689 31.9144 57.137 31.6159 57.0732 31.3379C57.0094 31.0553 56.9092 30.807 56.7725 30.5928C56.6403 30.374 56.4671 30.2031 56.2529 30.0801C56.0433 29.9525 55.7904 29.8887 55.4941 29.8887C55.2025 29.8887 54.9518 29.9525 54.7422 30.0801C54.5326 30.2031 54.3617 30.374 54.2295 30.5928C54.0973 30.807 53.9993 31.0553 53.9355 31.3379C53.8717 31.6159 53.8398 31.9144 53.8398 32.2334ZM59.9648 32.377V32.2334C59.9648 31.6911 60.0423 31.1921 60.1973 30.7363C60.3522 30.276 60.5778 29.8773 60.874 29.54C61.1702 29.2028 61.5326 28.9408 61.9609 28.7539C62.3893 28.5625 62.877 28.4668 63.4238 28.4668C63.9798 28.4668 64.472 28.5625 64.9004 28.7539C65.3333 28.9408 65.6979 29.2028 65.9941 29.54C66.2904 29.8773 66.516 30.276 66.6709 30.7363C66.8258 31.1921 66.9033 31.6911 66.9033 32.2334V32.377C66.9033 32.9147 66.8258 33.4137 66.6709 33.874C66.516 34.3298 66.2904 34.7285 65.9941 35.0703C65.6979 35.4076 65.3356 35.6696 64.9072 35.8564C64.4788 36.0433 63.9889 36.1367 63.4375 36.1367C62.8906 36.1367 62.4007 36.0433 61.9678 35.8564C61.5348 35.6696 61.1702 35.4076 60.874 35.0703C60.5778 34.7285 60.3522 34.3298 60.1973 33.874C60.0423 33.4137 59.9648 32.9147 59.9648 32.377ZM61.7695 32.2334V32.377C61.7695 32.7005 61.8014 33.0036 61.8652 33.2861C61.929 33.5687 62.027 33.8171 62.1592 34.0312C62.2913 34.2454 62.4622 34.4141 62.6719 34.5371C62.8861 34.6556 63.1413 34.7148 63.4375 34.7148C63.7292 34.7148 63.9798 34.6556 64.1895 34.5371C64.3991 34.4141 64.57 34.2454 64.7021 34.0312C64.8389 33.8171 64.9391 33.5687 65.0029 33.2861C65.0667 33.0036 65.0986 32.7005 65.0986 32.377V32.2334C65.0986 31.9144 65.0667 31.6159 65.0029 31.3379C64.9391 31.0553 64.8389 30.807 64.7021 30.5928C64.57 30.374 64.3968 30.2031 64.1826 30.0801C63.973 29.9525 63.7201 29.8887 63.4238 29.8887C63.1322 29.8887 62.8815 29.9525 62.6719 30.0801C62.4622 30.2031 62.2913 30.374 62.1592 30.5928C62.027 30.807 61.929 31.0553 61.8652 31.3379C61.8014 31.6159 61.7695 31.9144 61.7695 32.2334ZM72.9189 28.6035H74.5596V35.7744C74.5596 36.4443 74.4137 37.0117 74.1221 37.4766C73.835 37.946 73.4316 38.3014 72.9121 38.543C72.3926 38.7891 71.7887 38.9121 71.1006 38.9121C70.8044 38.9121 70.4831 38.8711 70.1367 38.7891C69.7949 38.707 69.4645 38.5771 69.1455 38.3994C68.8311 38.2262 68.569 38.0007 68.3594 37.7227L69.1729 36.6562C69.4189 36.9434 69.6969 37.1598 70.0068 37.3057C70.3167 37.4561 70.6517 37.5312 71.0117 37.5312C71.3763 37.5312 71.6862 37.4629 71.9414 37.3262C72.2012 37.194 72.3994 36.998 72.5361 36.7383C72.6774 36.4831 72.748 36.1686 72.748 35.7949V30.292L72.9189 28.6035ZM67.9219 32.3906V32.2471C67.9219 31.682 67.9902 31.1693 68.127 30.709C68.2637 30.2441 68.4596 29.8454 68.7148 29.5127C68.9746 29.18 69.2868 28.9225 69.6514 28.7402C70.0205 28.5579 70.4352 28.4668 70.8955 28.4668C71.3831 28.4668 71.7933 28.5557 72.126 28.7334C72.4632 28.9111 72.7412 29.1641 72.96 29.4922C73.1833 29.8203 73.3564 30.21 73.4795 30.6611C73.6071 31.1077 73.7051 31.5999 73.7734 32.1377V32.5273C73.7096 33.0514 73.6071 33.5322 73.4658 33.9697C73.3291 34.4072 73.1468 34.79 72.9189 35.1182C72.6911 35.4417 72.4085 35.6924 72.0713 35.8701C71.734 36.0479 71.3376 36.1367 70.8818 36.1367C70.4261 36.1367 70.016 36.0433 69.6514 35.8564C69.2868 35.6696 68.9746 35.4076 68.7148 35.0703C68.4596 34.7331 68.2637 34.3366 68.127 33.8809C67.9902 33.4251 67.9219 32.9284 67.9219 32.3906ZM69.7266 32.2471V32.3906C69.7266 32.7096 69.7585 33.0081 69.8223 33.2861C69.8861 33.5641 69.984 33.8102 70.1162 34.0244C70.2484 34.234 70.4147 34.3981 70.6152 34.5166C70.8158 34.6351 71.055 34.6943 71.333 34.6943C71.7067 34.6943 72.012 34.6169 72.249 34.4619C72.4906 34.3024 72.6729 34.0859 72.7959 33.8125C72.9235 33.5345 73.0055 33.2223 73.042 32.876V31.8027C73.0192 31.5293 72.9691 31.2764 72.8916 31.0439C72.8187 30.8115 72.7161 30.611 72.584 30.4424C72.4518 30.2738 72.2832 30.1416 72.0781 30.0459C71.873 29.9502 71.6292 29.9023 71.3467 29.9023C71.0732 29.9023 70.834 29.9639 70.6289 30.0869C70.4238 30.2054 70.2552 30.3717 70.123 30.5859C69.9909 30.8001 69.8906 31.0485 69.8223 31.3311C69.7585 31.6136 69.7266 31.9189 69.7266 32.2471ZM78.1006 25.5V36H76.2891V25.5H78.1006ZM83.1455 36.1367C82.585 36.1367 82.0814 36.0456 81.6348 35.8633C81.1882 35.681 80.8076 35.4281 80.4932 35.1045C80.1833 34.7764 79.944 34.3958 79.7754 33.9629C79.6113 33.5254 79.5293 33.056 79.5293 32.5547V32.2812C79.5293 31.7116 79.6113 31.1943 79.7754 30.7295C79.9395 30.2601 80.1719 29.8568 80.4727 29.5195C80.7734 29.1823 81.1335 28.9225 81.5527 28.7402C81.972 28.5579 82.4346 28.4668 82.9404 28.4668C83.4645 28.4668 83.9271 28.5557 84.3281 28.7334C84.7292 28.9066 85.0641 29.1527 85.333 29.4717C85.6019 29.7907 85.8047 30.1735 85.9414 30.6201C86.0781 31.0622 86.1465 31.5521 86.1465 32.0898V32.8486H80.3496V31.6045H84.3691V31.4678C84.36 31.1807 84.3053 30.9186 84.2051 30.6816C84.1048 30.4401 83.9499 30.2487 83.7402 30.1074C83.5306 29.9616 83.2594 29.8887 82.9268 29.8887C82.6579 29.8887 82.4232 29.9479 82.2227 30.0664C82.0267 30.1803 81.8626 30.3444 81.7305 30.5586C81.6029 30.7682 81.5072 31.0189 81.4434 31.3105C81.3796 31.6022 81.3477 31.9258 81.3477 32.2812V32.5547C81.3477 32.8646 81.3887 33.1517 81.4707 33.416C81.5573 33.6803 81.6826 33.9105 81.8467 34.1064C82.0153 34.2979 82.2158 34.4482 82.4482 34.5576C82.6852 34.6624 82.9541 34.7148 83.2549 34.7148C83.6331 34.7148 83.9749 34.6419 84.2803 34.4961C84.5902 34.3457 84.859 34.1247 85.0869 33.833L85.9961 34.7764C85.8411 35.0042 85.6315 35.223 85.3672 35.4326C85.1074 35.6423 84.793 35.8132 84.4238 35.9453C84.0547 36.0729 83.6286 36.1367 83.1455 36.1367ZM94.8076 32.3701H92.2441V30.8936H94.8076C95.2269 30.8936 95.5664 30.8252 95.8262 30.6885C96.0905 30.5472 96.2842 30.3558 96.4072 30.1143C96.5303 29.8682 96.5918 29.5879 96.5918 29.2734C96.5918 28.9681 96.5303 28.6833 96.4072 28.4189C96.2842 28.1546 96.0905 27.9404 95.8262 27.7764C95.5664 27.6123 95.2269 27.5303 94.8076 27.5303H92.8594V36H90.9795V26.0469H94.8076C95.5824 26.0469 96.2432 26.1859 96.79 26.4639C97.3415 26.7373 97.7607 27.1178 98.0479 27.6055C98.3395 28.0885 98.4854 28.64 98.4854 29.2598C98.4854 29.9023 98.3395 30.4561 98.0479 30.9209C97.7607 31.3857 97.3415 31.7435 96.79 31.9941C96.2432 32.2448 95.5824 32.3701 94.8076 32.3701ZM101.739 25.5V36H99.9277V25.5H101.739ZM107.536 34.4277V31.0166C107.536 30.766 107.493 30.5495 107.406 30.3672C107.32 30.1849 107.188 30.0436 107.01 29.9434C106.832 29.8431 106.606 29.793 106.333 29.793C106.091 29.793 105.88 29.834 105.697 29.916C105.52 29.998 105.383 30.1143 105.287 30.2646C105.191 30.4105 105.144 30.5791 105.144 30.7705H103.332C103.332 30.4652 103.405 30.1758 103.551 29.9023C103.697 29.6243 103.904 29.3783 104.173 29.1641C104.446 28.9453 104.772 28.7744 105.15 28.6514C105.533 28.5283 105.962 28.4668 106.436 28.4668C106.996 28.4668 107.495 28.5625 107.933 28.7539C108.375 28.9408 108.721 29.2233 108.972 29.6016C109.227 29.9798 109.354 30.4561 109.354 31.0303V34.2568C109.354 34.626 109.377 34.9427 109.423 35.207C109.473 35.4668 109.546 35.6924 109.642 35.8838V36H107.803C107.716 35.8132 107.65 35.5762 107.604 35.2891C107.559 34.9974 107.536 34.7103 107.536 34.4277ZM107.789 31.4951L107.803 32.5684H106.661C106.379 32.5684 106.13 32.598 105.916 32.6572C105.702 32.7119 105.526 32.7939 105.39 32.9033C105.253 33.0081 105.15 33.1357 105.082 33.2861C105.014 33.432 104.979 33.5983 104.979 33.7852C104.979 33.9674 105.021 34.1315 105.103 34.2773C105.189 34.4232 105.312 34.5394 105.472 34.626C105.636 34.708 105.827 34.749 106.046 34.749C106.365 34.749 106.643 34.6852 106.88 34.5576C107.117 34.4255 107.301 34.266 107.434 34.0791C107.566 33.8923 107.636 33.7145 107.646 33.5459L108.165 34.3252C108.101 34.512 108.006 34.7103 107.878 34.9199C107.75 35.1296 107.586 35.3255 107.386 35.5078C107.185 35.6901 106.944 35.8405 106.661 35.959C106.379 36.0775 106.05 36.1367 105.677 36.1367C105.198 36.1367 104.77 36.041 104.392 35.8496C104.013 35.6582 103.715 35.3962 103.496 35.0635C103.277 34.7308 103.168 34.3525 103.168 33.9287C103.168 33.5368 103.241 33.1904 103.387 32.8896C103.533 32.5889 103.749 32.3359 104.036 32.1309C104.323 31.9212 104.679 31.764 105.103 31.6592C105.531 31.5498 106.021 31.4951 106.572 31.4951H107.789ZM113.039 35.1797L115.021 28.6035H116.956L113.989 37.1211C113.921 37.3034 113.832 37.5016 113.723 37.7158C113.618 37.93 113.477 38.1328 113.299 38.3242C113.121 38.5202 112.898 38.6797 112.629 38.8027C112.365 38.9258 112.043 38.9873 111.665 38.9873C111.501 38.9873 111.355 38.9759 111.228 38.9531C111.1 38.9303 110.965 38.9007 110.824 38.8643V37.5107C110.87 37.5153 110.922 37.5176 110.981 37.5176C111.045 37.5221 111.1 37.5244 111.146 37.5244C111.41 37.5244 111.629 37.4925 111.802 37.4287C111.975 37.3695 112.114 37.2715 112.219 37.1348C112.328 37.0026 112.419 36.8294 112.492 36.6152L113.039 35.1797ZM112.062 28.6035L113.736 34.0518L114.03 35.959L112.786 36.1846L110.113 28.6035H112.062Z" fill="#BDE8FA"/>
</svg>
