<svg width="57" height="56" viewBox="0 0 57 56" fill="none" xmlns="http://www.w3.org/2000/svg">
<path d="M24.8047 7.23132H15.2422V3.56935C15.2422 2.70261 15.9558 1.99993 16.8359 1.99993H23.2109C24.0911 1.99993 24.8047 2.70261 24.8047 3.56935V7.23132Z" stroke="#283F7E" stroke-width="2" stroke-miterlimit="10" stroke-linecap="round" stroke-linejoin="round"/>
<path d="M39.7578 7.23132H30.1953V3.56935C30.1953 2.70261 30.9089 1.99993 31.7891 1.99993H38.1641C39.0442 1.99993 39.7578 2.70261 39.7578 3.56935V7.23132Z" stroke="#283F7E" stroke-width="2" stroke-miterlimit="10" stroke-linecap="round" stroke-linejoin="round"/>
<path d="M12.0937 54C11.214 54 10.5 53.297 10.5 52.4306V8.80077C10.5 7.93445 11.214 7.23135 12.0937 7.23135H42.9062C43.786 7.23135 44.5 7.93445 44.5 8.80077V52.4306C44.5 53.297 43.786 54 42.9062 54H12.0937Z" stroke="#283F7E" stroke-width="2" stroke-miterlimit="10" stroke-linecap="round" stroke-linejoin="round"/>
<path d="M27.4994 41.0785V32.8249H18.9805L27.4994 19.1066V27.3692H36.0183L27.4994 41.0785Z" stroke="#283F7E" stroke-width="2" stroke-miterlimit="10" stroke-linecap="round" stroke-linejoin="round"/>
<path d="M43.9769 12.6898H10.5" stroke="#283F7E" stroke-width="2" stroke-miterlimit="10" stroke-linecap="round" stroke-linejoin="round"/>
<path d="M44.5004 48.7686L11.0234 48.7686" stroke="#283F7E" stroke-width="2" stroke-miterlimit="10" stroke-linecap="round" stroke-linejoin="round"/>
</svg>
