<svg width="48" height="48" viewBox="0 0 48 48" fill="none" xmlns="http://www.w3.org/2000/svg">
<path d="M25.6353 21.7141C26.2951 20.9784 26.9117 20.2907 27.7315 19.8059C31.3372 17.6734 36.1097 19.549 37.2963 23.5639C37.632 24.6999 37.7706 25.8594 37.772 27.0379C37.7758 30.2556 37.7659 33.4734 37.7835 36.6912C37.7857 37.0889 37.6556 37.1634 37.2938 37.1596C35.6369 37.1423 33.9794 37.1413 32.3226 37.1604C31.9629 37.1645 31.8636 37.0685 31.8654 36.7057C31.8803 33.7777 31.8764 30.8495 31.8718 27.9213C31.8706 27.1805 31.7989 26.4494 31.6076 25.7262C30.9472 23.2298 28.046 23.1984 26.7336 24.4667C25.8602 25.3108 25.6303 26.3452 25.6332 27.4932C25.6407 30.5179 25.622 33.5427 25.649 36.5672C25.6535 37.0739 25.5015 37.1716 25.0313 37.1632C23.4069 37.134 21.7815 37.1433 20.1566 37.159C19.8232 37.1622 19.7216 37.0722 19.7227 36.7299C19.7398 31.0828 19.8118 25.4357 19.7258 19.7887C19.721 19.4742 19.8115 19.377 20.1301 19.3797C21.8354 19.3939 23.541 19.3954 25.2462 19.3787C25.585 19.3753 25.6474 19.5082 25.6401 19.8025C25.6244 20.4394 25.6353 21.0769 25.6353 21.7141Z" fill="#BDE8FA"/>
<path d="M16.4589 28.3088C16.4589 31.0901 16.4508 33.8715 16.468 36.6527C16.4705 37.0507 16.3678 37.1671 15.9639 37.1614C14.3244 37.1385 12.684 37.1375 11.0445 37.1619C10.6317 37.168 10.5459 37.0385 10.5469 36.6478C10.5595 31.053 10.559 25.4582 10.5477 19.8634C10.5469 19.4905 10.6369 19.3719 11.0251 19.377C12.6807 19.3989 14.337 19.3997 15.9926 19.3766C16.3886 19.3711 16.4676 19.5054 16.4659 19.8684C16.4531 22.6817 16.4589 25.4953 16.4589 28.3088Z" fill="#BDE8FA"/>
<path d="M13.3413 10.853C14.7041 10.7197 15.9635 11.388 16.5344 12.5438C17.0871 13.6628 16.9139 15.0623 16.0535 15.9486C15.0906 16.9404 13.8757 17.1369 12.5838 16.8455C11.4121 16.5813 10.6366 15.8466 10.3184 14.6638C9.83574 12.87 11.0947 11.063 12.9572 10.8812C13.0849 10.8687 13.2132 10.8622 13.3413 10.853Z" fill="#BDE8FA"/>
</svg>
