<svg width="16" height="15" viewBox="0 0 16 15" fill="none" xmlns="http://www.w3.org/2000/svg">
<path d="M9.9 8.3C10.6 7.7 11 6.9 11 6C11 4.3 9.7 3 8 3C6.3 3 5 4.3 5 6C5 6.9 5.4 7.7 6.1 8.3C4.9 8.8 4 10.1 4 11.5V13.5C4 14.3 4.7 15 5.5 15H10.5C11.3 15 12 14.3 12 13.5V11.5C12 10.1 11.1 8.8 9.9 8.3ZM8 4C9.1 4 10 4.9 10 6C10 7.1 9.1 8 8 8C6.9 8 6 7.1 6 6C6 4.9 6.9 4 8 4ZM11 13.5C11 13.8 10.8 14 10.5 14H5.5C5.2 14 5 13.8 5 13.5V11.5C5 10.1 6.1 9 7.5 9H8.5C9.9 9 11 10.1 11 11.5V13.5Z" fill="#232836"/>
<path d="M4 5.6C4.1 5.3 3.9 5 3.6 5C2.7 4.8 2 4 2 3C2 1.9 2.9 1 4 1C4.8 1 5.4 1.4 5.8 2.1C5.9 2.3 6.2 2.4 6.5 2.3C6.7 2.2 6.8 1.9 6.7 1.6C6.2 0.6 5.1 0 4 0C2.3 0 1 1.3 1 3C1 3.9 1.4 4.7 2.1 5.3C0.9 5.8 0 7.1 0 8.5V10.5C0 11.3 0.7 12 1.5 12H2C2.3 12 2.5 11.8 2.5 11.5C2.5 11.2 2.3 11 2 11H1.5C1.2 11 1 10.8 1 10.5V8.5C1 7.1 2.1 6 3.5 6C3.7 6 3.8 5.9 3.9 5.8C4 5.7 4 5.6 4 5.6Z" fill="#232836"/>
<path d="M13.9 5.3C14.6 4.7 15 3.9 15 3C15 1.3 13.7 0 12 0C10.9 0 9.8 0.6 9.3 1.6C9.2 1.8 9.3 2.1 9.5 2.3C9.7 2.4 10 2.3 10.2 2.1C10.6 1.4 11.2 1 12 1C13.1 1 14 1.9 14 3C14 4 13.3 4.8 12.4 5C12.1 5 11.9 5.3 12 5.6C12 5.7 12.1 5.8 12.1 5.8C12.2 5.9 12.3 6 12.5 6C13.9 6 15 7.1 15 8.5V10.5C15 10.8 14.8 11 14.5 11H14C13.7 11 13.5 11.2 13.5 11.5C13.5 11.8 13.7 12 14 12H14.5C15.3 12 16 11.3 16 10.5V8.5C16 7.1 15.1 5.8 13.9 5.3Z" fill="#232836"/>
</svg>
