<svg width="55" height="54" viewBox="0 0 55 54" fill="none" xmlns="http://www.w3.org/2000/svg">
<path d="M27.5001 27C20.3198 27 14.499 21.1797 14.499 13.9999C14.499 6.82032 20.3198 1 27.5001 1M27.5001 27C34.6804 27 40.5012 21.1797 40.5012 13.9999C40.5012 6.82032 34.6804 1 27.5001 1M27.5001 27C24.4579 27 21.9917 21.1797 21.9917 13.9999C21.9917 6.82032 24.4579 1 27.5001 1M27.5001 27C30.5423 27 33.0086 21.1797 33.0086 13.9999C33.0086 6.82032 30.5423 1 27.5001 1M27.5001 27L27.5 42.6012M48.5 43V35H6.5V43M32.5 53H22.5V43H32.5V53ZM53.5 53H43.5V43H53.5V53ZM1.5 53H11.5V43H1.5V53Z" stroke="#283F7E" stroke-width="2" stroke-miterlimit="10" stroke-linecap="round" stroke-linejoin="round"/>
</svg>
