<svg width="57" height="56" viewBox="0 0 57 56" fill="none" xmlns="http://www.w3.org/2000/svg">
<path d="M50.1176 18.1882C49.205 20.5884 46.6487 21.5425 44.3966 21.5425H43.6065L42.8164 25.4274H46.9233L43.9403 40H50.0247L54.4992 18.1796L50.1176 18.1882Z" stroke="#283F7E" stroke-width="2" stroke-linejoin="round"/>
<path d="M41.7567 23.1813L42.83 18H17.2503C13.1406 18 10.7237 19.854 9.99981 23.562L9.69982 25.1151C9.35898 26.9035 9.48433 28.2484 10.0759 29.1498C10.6674 30.0511 11.8153 30.6757 13.5194 31.0237L17.6729 31.8794C18.3531 32.0206 18.632 32.4142 18.5179 33.0646L18.3954 33.6465C18.2348 34.4166 17.7362 34.8016 16.8912 34.8016H3.50561L2.5 39.9829H17.4151C21.5052 39.9829 23.9121 38.1289 24.6361 34.4209L24.9952 32.5897C25.336 30.8041 25.2107 29.4592 24.6192 28.555C24.0276 27.6509 22.8896 27.0262 21.2052 26.6811L17.0222 25.8254C16.3419 25.6799 16.0588 25.3034 16.1771 24.6958L16.2659 24.268C16.303 23.9418 16.466 23.6436 16.7192 23.4385C16.9724 23.2333 17.2955 23.1378 17.6179 23.1727H28.6585L25.2149 39.9915H31.2993L33.095 31.1778H39.6441L40.6159 26.373H34.0837L34.7471 23.1727L41.7567 23.1813Z" stroke="#283F7E" stroke-width="2" stroke-linejoin="round"/>
</svg>
