<svg width="38" height="48" viewBox="0 0 38 48" fill="none" xmlns="http://www.w3.org/2000/svg">
<path d="M19.1237 2.99996L20.043 0.853293C19.7525 0.728763 19.4398 0.664551 19.1237 0.664551C18.8076 0.664551 18.4949 0.728763 18.2044 0.853293L19.1237 2.99996ZM19.1237 45L17.9664 47.0253C18.3188 47.2266 18.7178 47.3325 19.1237 47.3325C19.5296 47.3325 19.9285 47.2266 20.281 47.0253L19.1237 45ZM18.2044 0.855627L3.28503 7.24663L5.1237 11.54L20.043 5.14663L18.2044 0.855627ZM0.457032 11.5376V27.5443H5.1237V11.5376H0.457032ZM8.6867 41.724L17.9664 47.0253L20.281 42.9746L11.0014 37.671L8.6867 41.724ZM20.281 47.0253L29.5607 41.724L27.246 37.671L17.9664 42.9746L20.281 47.0253ZM37.7904 27.542V11.54H33.1237V27.5466L37.7904 27.542ZM34.9624 7.24896L20.043 0.855627L18.2044 5.14429L33.1237 11.54L34.9624 7.24896ZM37.7904 11.54C37.7903 10.6268 37.5223 9.73379 37.0196 8.97147C36.5169 8.20916 35.8016 7.60873 34.9624 7.24896L33.1237 11.54H37.7904ZM29.5607 41.724C32.0612 40.2951 34.1394 38.2328 35.5847 35.7418C37.03 33.2508 37.7909 30.4219 37.7904 27.542H33.1237C33.1234 29.5988 32.5794 31.619 31.5468 33.3978C30.5142 35.1766 29.0297 36.6508 27.2437 37.671L29.5607 41.724ZM0.457032 27.542C0.456903 30.4215 1.21804 33.2499 2.6633 35.7405C4.10856 38.2311 6.18656 40.2953 8.6867 41.724L11.0014 37.671C9.21651 36.6509 7.73289 35.1773 6.70074 33.3994C5.66858 31.6215 5.12454 29.6024 5.1237 27.5466L0.457032 27.542ZM3.28503 7.24663C2.4454 7.60656 1.72987 8.20734 1.22716 8.97011C0.724452 9.73289 0.456676 10.6264 0.457032 11.54H5.1237L3.28503 7.24663Z" fill="#E65528"/>
<path d="M22.9667 18.5081C23.4223 18.0529 24.1606 18.0527 24.6161 18.5081C25.0717 18.9637 25.0717 19.7029 24.6161 20.1585L20.7743 23.9993L24.6161 27.8421C25.0716 28.2977 25.0717 29.0359 24.6161 29.4915C24.1606 29.947 23.4223 29.9469 22.9667 29.4915L19.1239 25.6497L15.2831 29.4915C14.8275 29.9471 14.0883 29.9471 13.6327 29.4915C13.1774 29.036 13.1775 28.2977 13.6327 27.8421L17.4745 23.9993L13.6327 20.1585C13.1771 19.7029 13.1771 18.9637 13.6327 18.5081C14.0883 18.0525 14.8275 18.0525 15.2831 18.5081L19.1239 22.3499L22.9667 18.5081Z" fill="#E65528"/>
</svg>
