<svg width="57" height="56" viewBox="0 0 57 56" fill="none" xmlns="http://www.w3.org/2000/svg">
<path d="M28.127 9.53931L14.125 15.5403V31.5442H11.3252L14.125 31.5471C14.1259 33.6027 14.6701 35.6219 15.7021 37.3997C16.7343 39.1775 18.2181 40.6511 20.0029 41.6711L28.125 46.3127L36.2451 41.6711L36.5762 41.4749C38.2148 40.4658 39.5797 39.0654 40.5479 37.3977C41.516 35.73 42.0554 33.8503 42.1191 31.927L42.125 31.5422V15.5403L28.127 9.53931ZM34.3008 22.5081C34.7564 22.0528 35.4957 22.0526 35.9512 22.5081C36.4065 22.9636 36.4064 23.7029 35.9512 24.1584L26.6172 33.4915C26.1616 33.9468 25.4233 33.9468 24.9678 33.4915L20.3008 28.8245L21.126 28.0002L21.9512 27.175L25.792 31.0168L34.3008 22.5081ZM20.3008 27.175C20.7564 26.7198 21.4957 26.7195 21.9512 27.175L20.3008 28.8245C19.8456 28.3689 19.8455 27.6306 20.3008 27.175ZM28.125 4.66431C28.4411 4.66431 28.7544 4.72923 29.0449 4.85376L28.125 7.00024L27.2061 4.85376C27.4965 4.72926 27.809 4.66433 28.125 4.66431ZM46.792 31.5422L46.7832 32.0813C46.6948 34.7741 45.9408 37.4062 44.5859 39.7415C43.1407 42.2324 41.0628 44.295 38.5625 45.7239L29.2822 51.0256C28.9298 51.2269 28.5308 51.3323 28.125 51.3323C27.7192 51.3322 27.3202 51.2269 26.9678 51.0256L17.6885 45.7239C15.1884 44.2952 13.1103 42.231 11.665 39.7405C10.2198 37.25 9.4589 34.4217 9.45898 31.5422V15.5374C9.45914 14.6247 9.72629 13.732 10.2285 12.97C10.7312 12.2073 11.4466 11.6063 12.2861 11.2463L27.2061 4.85571L28.125 7.00024L29.0449 4.85571L43.9639 11.2493C44.8031 11.609 45.5188 12.2096 46.0215 12.9719C46.524 13.7341 46.7919 14.6273 46.792 15.5403V31.5422Z" fill="#37AE91"/>
</svg>
