<svg width="171" height="66" viewBox="0 0 171 66" fill="none" xmlns="http://www.w3.org/2000/svg">
<path d="M17.1282 9.89235V50.4954C17.1282 50.8024 17.0059 51.0968 16.7882 51.3138C16.5705 51.5308 16.2752 51.6528 15.9673 51.6528H10.8352C8.06406 51.6528 5.40647 50.5554 3.447 48.602C1.48754 46.6486 0.386719 43.9991 0.386719 41.2366V2.38952C0.386719 1.8476 0.602672 1.32787 0.987057 0.944669C1.37144 0.561472 1.89277 0.346191 2.43637 0.346191H7.59254C10.1226 0.365095 12.5431 1.37818 14.3285 3.16548C16.1138 4.95279 17.1199 7.37002 17.1282 9.89235Z" fill="url(#paint0_linear_1043_86271)"/>
<path d="M39.8746 36.0405V45.866C39.8746 47.4071 39.2605 48.8851 38.1674 49.9748C37.0743 51.0645 35.5918 51.6767 34.0459 51.6767H21.7159C21.5439 51.6767 21.379 51.6086 21.2574 51.4874C21.1357 51.3661 21.0674 51.2017 21.0674 51.0302V40.2229C21.0674 38.8131 21.6292 37.461 22.6292 36.4641C23.6292 35.4672 24.9855 34.9071 26.3997 34.9071H38.7297C39.032 34.9071 39.322 35.0263 39.5365 35.2386C39.7509 35.4509 39.8725 35.7392 39.8746 36.0405Z" fill="url(#paint1_linear_1043_86271)"/>
<path d="M60.2431 44.98H71.6523V51.6847H51.54V16.0463H60.2431V44.98Z" fill="#EFF9FE"/>
<path d="M81.252 50.3118C79.0527 49.1548 77.2326 47.393 76.0078 45.2355C74.7432 42.8638 74.082 40.219 74.082 37.5331C74.082 34.8472 74.7432 32.2024 76.0078 29.8307C77.2581 27.6562 79.109 25.8858 81.3401 24.7304C83.6796 23.5606 86.2608 22.9514 88.8782 22.9514C91.4955 22.9514 94.0767 23.5606 96.4163 24.7304C98.6342 25.8898 100.471 27.6601 101.709 29.8307C102.988 32.1933 103.658 34.8361 103.658 37.5211C103.658 40.2061 102.988 42.8489 101.709 45.2115C100.45 47.3849 98.5941 49.1545 96.3602 50.3118C94.0255 51.5144 91.4298 52.1257 88.8021 52.0918C86.1757 52.1378 83.5796 51.5258 81.252 50.3118ZM93.0135 42.7452C94.1825 41.5319 94.7669 39.7839 94.7669 37.5171C94.8931 35.6208 94.2824 33.7488 93.0616 32.2891C92.521 31.716 91.8685 31.2593 91.1443 30.9471C90.42 30.6349 89.6392 30.4739 88.8502 30.4739C88.0611 30.4739 87.2804 30.6349 86.5561 30.9471C85.8318 31.2593 85.1793 31.716 84.6388 32.2891C83.5179 33.4864 82.9574 35.2423 82.9574 37.5411C82.9574 39.8398 83.5098 41.5319 84.6067 42.7691C85.1227 43.3587 85.7624 43.828 86.4805 44.1438C87.1985 44.4597 87.9774 44.6144 88.7621 44.5969C89.5617 44.6047 90.3538 44.4437 91.0865 44.1245C91.8193 43.8054 92.476 43.3353 93.0135 42.7452Z" fill="#EFF9FE"/>
<path d="M124.327 24.1717C125.756 24.9047 126.962 26.0074 127.818 27.3644V23.3735H136.521V51.6288C136.558 54.0792 136.026 56.5049 134.967 58.7166C133.929 60.8305 132.282 62.587 130.236 63.7611C127.815 65.0895 125.079 65.7404 122.317 65.6448C118.106 65.6448 114.695 64.655 112.085 62.6756C110.807 61.7288 109.747 60.5216 108.974 59.1343C108.201 57.7471 107.733 56.2115 107.601 54.63H116.208C116.342 55.1637 116.582 55.6653 116.913 56.1053C117.245 56.5453 117.661 56.9149 118.138 57.1921C119.283 57.8468 120.589 58.1702 121.909 58.126C122.688 58.1625 123.466 58.0445 124.198 57.7787C124.931 57.5128 125.603 57.1045 126.176 56.5775C127.244 55.5505 127.778 53.901 127.778 51.6288V47.638C126.889 48.9754 125.681 50.0724 124.263 50.8307C122.651 51.689 120.845 52.1179 119.019 52.0758C116.767 52.1001 114.556 51.4735 112.653 50.2719C110.701 49.0125 109.14 47.2352 108.146 45.1397C107.053 42.7263 106.489 40.1089 106.489 37.4613C106.489 34.8136 107.053 32.1962 108.146 29.7828C109.142 27.7054 110.704 25.949 112.653 24.7144C114.559 23.5238 116.769 22.9058 119.019 22.9345C120.864 22.8926 122.691 23.3182 124.327 24.1717ZM126.008 32.3929C125.437 31.8039 124.753 31.3355 123.996 31.0156C123.24 30.6957 122.426 30.5309 121.605 30.5309C120.783 30.5309 119.969 30.6957 119.213 31.0156C118.456 31.3355 117.772 31.8039 117.201 32.3929C116.574 33.0803 116.092 33.8855 115.781 34.7613C115.47 35.637 115.338 36.5658 115.392 37.4932C115.292 39.3797 115.942 41.2293 117.201 42.6414C117.768 43.2385 118.45 43.7141 119.207 44.0392C119.965 44.3643 120.78 44.5319 121.605 44.5319C122.429 44.5319 123.245 44.3643 124.002 44.0392C124.759 43.7141 125.442 43.2385 126.008 42.6414C127.18 41.1873 127.818 39.3782 127.818 37.5131C127.818 35.6481 127.18 33.8389 126.008 32.3849V32.3929Z" fill="#EFF9FE"/>
<path d="M148.258 50.3118C146.059 49.1548 144.239 47.393 143.014 45.2355C141.755 42.8621 141.097 40.2179 141.097 37.5331C141.097 34.8482 141.755 32.2041 143.014 29.8307C144.255 27.6599 146.094 25.8896 148.314 24.7304C150.653 23.5619 153.232 22.9534 155.848 22.9534C158.464 22.9534 161.044 23.5619 163.382 24.7304C165.601 25.8918 167.44 27.6615 168.683 29.8307C170.004 32.1748 170.67 34.8291 170.612 37.5171C170.671 40.2119 169.993 42.8718 168.651 45.2115C167.395 47.3846 165.542 49.1544 163.31 50.3118C160.973 51.5157 158.375 52.127 155.744 52.0918C153.14 52.1251 150.567 51.5135 148.258 50.3118ZM160.02 42.7452C161.197 41.5319 161.781 39.7839 161.781 37.5171C161.907 35.6208 161.297 33.7488 160.076 32.2891C159.534 31.7158 158.881 31.2589 158.156 30.9467C157.431 30.6344 156.65 30.4733 155.86 30.4733C155.071 30.4733 154.289 30.6344 153.564 30.9467C152.839 31.2589 152.186 31.7158 151.645 32.2891C150.524 33.4864 149.964 35.2423 149.964 37.5411C149.964 39.8398 150.516 41.5319 151.621 42.7691C152.135 43.3585 152.773 43.8278 153.49 44.1436C154.207 44.4595 154.985 44.6143 155.768 44.5969C156.568 44.6057 157.36 44.4451 158.093 44.1259C158.826 43.8067 159.483 43.3361 160.02 42.7452Z" fill="#EFF9FE"/>
<defs>
<linearGradient id="paint0_linear_1043_86271" x1="5.25948" y1="-39.8604" x2="87.0773" y2="61.2403" gradientUnits="userSpaceOnUse">
<stop stop-color="#EC1B69"/>
<stop offset="1" stop-color="#F05B57"/>
</linearGradient>
<linearGradient id="paint1_linear_1043_86271" x1="-85.7406" y1="-24.4257" x2="-34.0214" y2="124.183" gradientUnits="userSpaceOnUse">
<stop stop-color="#EC1B69"/>
<stop offset="1" stop-color="#F05B57"/>
</linearGradient>
</defs>
</svg>
