<svg width="57" height="56" viewBox="0 0 57 56" fill="none" xmlns="http://www.w3.org/2000/svg">
<path fill-rule="evenodd" clip-rule="evenodd" d="M54.5 28C54.5 34.8956 51.7607 41.5088 46.8848 46.3848C42.0088 51.2607 35.3956 54 28.5 54C21.6044 54 14.9912 51.2607 10.1152 46.3848C5.23928 41.5088 2.5 34.8956 2.5 28C2.5 21.1044 5.23928 14.4912 10.1152 9.61522C14.9912 4.73928 21.6044 2 28.5 2C35.3956 2 42.0088 4.73928 46.8848 9.61522C51.7607 14.4912 54.5 21.1044 54.5 28ZM19.14 14.48L14.98 22.8H25.38L14.98 39.44H35.78L42.02 31.12H31.62L42.02 14.48H19.14Z" stroke="#283F7E" stroke-width="2"/>
</svg>
